<svg width="191" height="33" viewBox="0 0 191 33" fill="none" xmlns="http://www.w3.org/2000/svg">
<path d="M4.95312 10.4727C4.95312 10.668 4.88151 11.0977 4.73828 11.7617C4.59505 12.4258 4.44531 13.3047 4.28906 14.3984C4.14583 15.4922 4.07422 16.651 4.07422 17.875C4.07422 18.8255 4.11328 19.6979 4.19141 20.4922C4.26953 21.2734 4.39974 22.0807 4.58203 22.9141C4.77734 23.7344 5.05078 24.457 5.40234 25.082C5.76693 25.707 6.20964 26.2734 6.73047 26.7812C7.2513 27.276 7.90234 27.6602 8.68359 27.9336C9.46484 28.194 10.3568 28.3242 11.3594 28.3242C12.2839 28.3242 13.1497 28.2201 13.957 28.0117C14.7643 27.8034 15.3763 27.5755 15.793 27.3281C16.2227 27.0677 16.6133 26.8333 16.9648 26.625C17.3294 26.4167 17.5833 26.3125 17.7266 26.3125C18.0391 26.3125 18.1953 26.4753 18.1953 26.8008C18.1953 26.9961 18.1107 27.2695 17.9414 27.6211C17.7852 27.9727 17.4987 28.3828 17.082 28.8516C16.6654 29.3203 16.1576 29.7565 15.5586 30.1602C14.9727 30.5638 14.1784 30.9023 13.1758 31.1758C12.1732 31.4622 11.0729 31.6055 9.875 31.6055C7.97396 31.6055 6.3724 31.319 5.07031 30.7461C3.76823 30.1732 2.74609 29.3138 2.00391 28.168C1.27474 27.0221 0.753906 25.7005 0.441406 24.2031C0.141927 22.7057 -0.0078125 20.9154 -0.0078125 18.832C-0.0078125 17.3607 0.0833333 16.0326 0.265625 14.8477C0.447917 13.6628 0.669271 12.8164 0.929688 12.3086C1.25521 11.6576 1.76302 11.0911 2.45312 10.6094C3.15625 10.1146 3.79427 9.86719 4.36719 9.86719C4.75781 9.86719 4.95312 10.069 4.95312 10.4727ZM17.8047 5.31641C17.8047 5.85026 17.3229 6.46224 16.3594 7.15234C15.9688 7.47786 15.526 7.64062 15.0312 7.64062C14.9141 7.64062 14.8034 7.63411 14.6992 7.62109C14.5951 7.59505 14.4779 7.5625 14.3477 7.52344C14.2174 7.47135 14.1133 7.43229 14.0352 7.40625C13.957 7.38021 13.8268 7.32812 13.6445 7.25C13.4753 7.17188 13.3516 7.11328 13.2734 7.07422C11.8932 6.48828 10.6172 6.19531 9.44531 6.19531C7.10156 6.19531 4.82292 7.17188 2.60938 9.125C2.54427 9.17708 2.44661 9.25521 2.31641 9.35938C2.1862 9.46354 2.08203 9.54818 2.00391 9.61328C1.9388 9.66536 1.85417 9.73047 1.75 9.80859C1.65885 9.8737 1.57422 9.92578 1.49609 9.96484C1.43099 9.99089 1.3724 10.0039 1.32031 10.0039C1.02083 10.0039 0.871094 9.84115 0.871094 9.51562C0.871094 9.09896 1.22266 8.44792 1.92578 7.5625C3.1237 6.07812 4.50391 4.94531 6.06641 4.16406C7.64193 3.38281 9.55599 2.99219 11.8086 2.99219C13.5404 2.99219 15.1224 3.34375 16.5547 4.04688C16.8021 4.16406 16.9779 4.25521 17.082 4.32031C17.1992 4.3724 17.349 4.49609 17.5312 4.69141C17.7135 4.88672 17.8047 5.09505 17.8047 5.31641ZM29.8359 10.3945C32.8047 10.3945 34.9857 11.2734 36.3789 13.0312C37.7852 14.776 38.4883 17.3542 38.4883 20.7656C38.4883 21.8203 38.3516 22.9531 38.0781 24.1641C37.8177 25.362 37.4596 26.4297 37.0039 27.3672C36.5091 28.3568 35.9036 29.1966 35.1875 29.8867C34.4714 30.5768 33.8919 30.9219 33.4492 30.9219C33.1758 30.9219 33.0391 30.7982 33.0391 30.5508C33.0391 30.4727 33.0846 30.3685 33.1758 30.2383C33.2669 30.1081 33.3906 29.9128 33.5469 29.6523C33.7031 29.3789 33.8398 29.0664 33.957 28.7148C34.4909 27.2565 34.7578 25.1927 34.7578 22.5234C34.7578 21.0521 34.6536 19.776 34.4453 18.6953C34.25 17.6016 33.918 16.6315 33.4492 15.7852C32.9935 14.9388 32.3555 14.3008 31.5352 13.8711C30.7148 13.4284 29.7122 13.207 28.5273 13.207C26.8867 13.207 25.194 13.806 23.4492 15.0039C23.3841 15.056 23.2865 15.1276 23.1562 15.2188C23.026 15.2969 22.9219 15.362 22.8438 15.4141C22.7786 15.4661 22.707 15.5117 22.6289 15.5508C22.5508 15.5898 22.4857 15.6094 22.4336 15.6094C22.2513 15.6094 22.1602 15.4987 22.1602 15.2773C22.1602 15.1341 22.2318 14.9258 22.375 14.6523C22.5312 14.3789 22.6615 14.1771 22.7656 14.0469C24.6667 11.612 27.0234 10.3945 29.8359 10.3945ZM25.0703 20.2188C25.0703 21.1302 25.0898 21.9115 25.1289 22.5625C25.168 23.2135 25.2396 23.8906 25.3438 24.5938C25.4609 25.2969 25.6302 25.8828 25.8516 26.3516C26.0859 26.8203 26.3724 27.25 26.7109 27.6406C27.0625 28.0312 27.5052 28.3242 28.0391 28.5195C28.5729 28.7018 29.1979 28.793 29.9141 28.793C30.526 28.793 31.0599 28.7083 31.5156 28.5391C31.9844 28.3698 32.2513 28.2852 32.3164 28.2852C32.5898 28.2852 32.7266 28.4284 32.7266 28.7148C32.7266 29.3008 32.3034 29.9323 31.457 30.6094C30.6237 31.2734 29.5951 31.6055 28.3711 31.6055C27.2383 31.6055 26.2487 31.4167 25.4023 31.0391C24.569 30.6615 23.8984 30.1667 23.3906 29.5547C22.8828 28.9427 22.4727 28.1745 22.1602 27.25C21.8607 26.3255 21.6589 25.3945 21.5547 24.457C21.4505 23.5195 21.3984 22.4583 21.3984 21.2734C21.3984 20.6094 21.4635 19.9128 21.5938 19.1836C21.724 18.4414 21.8997 17.875 22.1211 17.4844C22.3945 17.0156 22.8307 16.5859 23.4297 16.1953C24.0417 15.8047 24.5625 15.6094 24.9922 15.6094C25.3177 15.6094 25.4805 15.8047 25.4805 16.1953C25.4805 16.2604 25.4089 16.7617 25.2656 17.6992C25.1354 18.6367 25.0703 19.4766 25.0703 20.2188ZM55.2266 30.3555V3.51953C55.2266 3.01172 55.3438 2.61458 55.5781 2.32812C55.9167 1.9375 56.3138 1.61849 56.7695 1.37109C57.2383 1.1237 57.668 1 58.0586 1C58.5143 1 58.7422 1.27995 58.7422 1.83984V28.6758C58.7422 29.1706 58.625 29.5742 58.3906 29.8867C58.0521 30.2773 57.6484 30.5964 57.1797 30.8438C56.724 31.0781 56.3008 31.1953 55.9102 31.1953C55.4544 31.1953 55.2266 30.9154 55.2266 30.3555ZM53.5664 27.9531C53.7487 27.862 53.8659 27.8164 53.918 27.8164C54.1393 27.8164 54.25 28.0508 54.25 28.5195C54.25 29.1576 54.0742 29.6393 53.7227 29.9648C52.4596 31.0586 50.9753 31.6055 49.2695 31.6055C48.7096 31.6055 48.1888 31.5729 47.707 31.5078C47.2383 31.4427 46.75 31.319 46.2422 31.1367C45.7474 30.9544 45.3047 30.7135 44.9141 30.4141C44.5234 30.1146 44.1458 29.7174 43.7812 29.2227C43.4167 28.7148 43.1172 28.1289 42.8828 27.4648C42.6484 26.8008 42.4596 26 42.3164 25.0625C42.1732 24.112 42.1016 23.0508 42.1016 21.8789C42.1016 21.0586 42.1862 20.2318 42.3555 19.3984C42.5378 18.5651 42.7591 17.9466 43.0195 17.543C43.3581 17.0352 43.8268 16.5859 44.4258 16.1953C45.0378 15.7917 45.5586 15.5898 45.9883 15.5898C46.3008 15.5898 46.457 15.7852 46.457 16.1758C46.457 16.2669 46.3984 16.5534 46.2812 17.0352C46.1771 17.5169 46.0664 18.168 45.9492 18.9883C45.832 19.7956 45.7734 20.6419 45.7734 21.5273C45.7734 24.0013 46.1576 25.8307 46.9258 27.0156C47.694 28.2005 48.9701 28.793 50.7539 28.793C51.5872 28.793 52.5247 28.513 53.5664 27.9531ZM53.1172 14.125C52.1016 13.526 50.9753 13.2266 49.7383 13.2266C48.7747 13.2266 47.8763 13.3763 47.043 13.6758C46.2096 13.9753 45.3112 14.444 44.3477 15.082C43.8138 15.4336 43.4948 15.6094 43.3906 15.6094C43.1693 15.6094 43.0586 15.4857 43.0586 15.2383C43.0586 14.9128 43.2474 14.5156 43.625 14.0469C45.3438 11.612 47.6745 10.3945 50.6172 10.3945C51.6328 10.3945 52.5703 10.5833 53.4297 10.9609C53.7552 11.1042 53.9701 11.2734 54.0742 11.4688C54.1914 11.6641 54.25 12.0742 54.25 12.6992C54.25 13.7799 54.0547 14.3203 53.6641 14.3203C53.5339 14.3203 53.3516 14.2552 53.1172 14.125ZM66.7695 18.5586C66.7695 18.9232 66.8802 19.1576 67.1016 19.2617C67.3359 19.3529 67.6745 19.3984 68.1172 19.3984C69.25 19.3984 70.2201 19.3008 71.0273 19.1055C71.8346 18.9102 72.4531 18.6367 72.8828 18.2852C73.3125 17.9336 73.6185 17.5625 73.8008 17.1719C73.9961 16.7812 74.0938 16.3516 74.0938 15.8828C74.0938 15.0755 73.8138 14.431 73.2539 13.9492C72.694 13.4544 71.7956 13.207 70.5586 13.207C68.6185 13.207 66.7956 13.819 65.0898 15.043C64.582 15.4206 64.263 15.6094 64.1328 15.6094C63.9115 15.6094 63.8008 15.4857 63.8008 15.2383C63.8008 14.9128 63.9896 14.5156 64.3672 14.0469C65.0703 13.1484 65.8711 12.4128 66.7695 11.8398C67.668 11.2669 68.4883 10.8828 69.2305 10.6875C69.9727 10.4922 70.7083 10.3945 71.4375 10.3945C72.375 10.3945 73.2214 10.4922 73.9766 10.6875C74.7318 10.8828 75.4023 11.1888 75.9883 11.6055C76.5742 12.0091 77.0299 12.569 77.3555 13.2852C77.681 13.9883 77.8438 14.8151 77.8438 15.7656C77.8438 17.7969 76.8737 19.3659 74.9336 20.4727C73.0065 21.5664 70.3698 22.1133 67.0234 22.1133C66.0859 22.1133 65.0247 22.0612 63.8398 21.957C63.2539 21.918 62.9609 21.6315 62.9609 21.0977C62.9609 19.6523 63.1693 18.5716 63.5859 17.8555C64.0026 17.1263 64.543 16.5664 65.207 16.1758C65.8581 15.7982 66.3529 15.6094 66.6914 15.6094C67.0039 15.6094 67.1602 15.8047 67.1602 16.1953C67.1602 16.3516 67.0951 16.7357 66.9648 17.3477C66.8346 17.9466 66.7695 18.3503 66.7695 18.5586ZM63.1172 24.0078C63.1172 23.3307 63.4297 22.9922 64.0547 22.9922H65.7344C66.0729 22.9922 66.3073 23.0573 66.4375 23.1875C66.5807 23.3177 66.6914 23.6042 66.7695 24.0469C67.2773 27.2109 69.0091 28.793 71.9648 28.793C72.707 28.793 73.4036 28.7018 74.0547 28.5195C74.7057 28.3372 75.207 28.1354 75.5586 27.9141C75.9232 27.6927 76.2552 27.4909 76.5547 27.3086C76.8672 27.1263 77.0951 27.0352 77.2383 27.0352C77.5378 27.0352 77.6875 27.1979 77.6875 27.5234C77.6875 27.7969 77.5378 28.1484 77.2383 28.5781C76.9388 29.0078 76.5091 29.457 75.9492 29.9258C75.4023 30.3815 74.6406 30.7721 73.6641 31.0977C72.7005 31.4362 71.6523 31.6055 70.5195 31.6055C68.1758 31.6055 66.3529 30.9023 65.0508 29.4961C63.7617 28.0768 63.1172 26.2474 63.1172 24.0078ZM81.8086 30.3555V20.5117C81.8086 19.7826 81.9844 19.2227 82.3359 18.832C82.6875 18.4284 83.1042 18.0638 83.5859 17.7383C84.0677 17.3997 84.4453 17.2305 84.7188 17.2305C85.1224 17.2305 85.3242 17.5104 85.3242 18.0703V28.7344C85.3242 29.4505 85.0052 30.043 84.3672 30.5117C83.7292 30.9674 83.1042 31.1953 82.4922 31.1953C82.0365 31.1953 81.8086 30.9154 81.8086 30.3555ZM90.207 10.3945C90.9492 10.3945 91.724 10.5573 92.5312 10.8828C93.3516 11.2083 93.7617 11.6315 93.7617 12.1523C93.7617 12.569 93.4883 13.0052 92.9414 13.4609C92.3945 13.9036 91.9128 14.125 91.4961 14.125C91.1445 14.125 90.6497 13.9622 90.0117 13.6367C89.4128 13.3503 88.8659 13.207 88.3711 13.207C88.0586 13.207 87.7591 13.2591 87.4727 13.3633C87.1862 13.4544 86.8542 13.6432 86.4766 13.9297C86.099 14.2031 85.7865 14.444 85.5391 14.6523C85.3047 14.8477 84.8945 15.2188 84.3086 15.7656C83.7357 16.2995 83.2865 16.7096 82.9609 16.9961C82.6745 17.2435 82.4336 17.3672 82.2383 17.3672C81.9518 17.3672 81.8086 17.1263 81.8086 16.6445V12.8555C81.8086 12.1523 82.1276 11.5664 82.7656 11.0977C83.4167 10.6289 84.0417 10.3945 84.6406 10.3945C85.0964 10.3945 85.3242 10.6745 85.3242 11.2344V12.3281C85.3242 12.7448 85.4154 12.9531 85.5977 12.9531C85.7409 12.9531 85.9688 12.7969 86.2812 12.4844C87.6745 11.0911 88.9831 10.3945 90.207 10.3945ZM106.652 26.5664C106.652 25.1732 106.268 24.1771 105.5 23.5781C104.745 22.9792 103.651 22.6146 102.219 22.4844C100.956 22.3672 99.8685 22.1523 98.957 21.8398C98.0456 21.5273 97.3359 21.1497 96.8281 20.707C96.3203 20.2513 95.9492 19.7695 95.7148 19.2617C95.4935 18.7409 95.3828 18.181 95.3828 17.582C95.3828 16.9701 95.6953 16.4297 96.3203 15.9609C96.9453 15.4792 97.4727 15.2383 97.9023 15.2383C98.2018 15.2383 98.4036 15.4401 98.5078 15.8438C98.612 16.2865 98.7161 16.6576 98.8203 16.957C98.9375 17.2565 99.0938 17.5234 99.2891 17.7578C99.4974 17.9792 99.6992 18.1615 99.8945 18.3047C100.103 18.4349 100.415 18.5586 100.832 18.6758C101.262 18.7799 101.665 18.8646 102.043 18.9297C102.434 18.9948 102.987 19.0729 103.703 19.1641C104.836 19.3073 105.799 19.5677 106.594 19.9453C107.388 20.3099 107.987 20.7656 108.391 21.3125C108.794 21.8594 109.081 22.4258 109.25 23.0117C109.419 23.5977 109.504 24.2617 109.504 25.0039C109.504 25.8372 109.361 26.638 109.074 27.4062C108.801 28.1615 108.462 28.7799 108.059 29.2617C107.655 29.7305 107.245 30.1081 106.828 30.3945C106.411 30.668 106.047 30.8047 105.734 30.8047C105.526 30.8047 105.422 30.707 105.422 30.5117C105.422 30.4336 105.526 30.2383 105.734 29.9258C106.346 28.9362 106.652 27.8164 106.652 26.5664ZM107.941 11.5273C108.345 11.8398 108.547 12.1458 108.547 12.4453C108.547 12.7708 108.273 13.1745 107.727 13.6562C107.193 14.125 106.704 14.3594 106.262 14.3594C106.132 14.3594 106.014 14.3464 105.91 14.3203C105.806 14.2812 105.65 14.2227 105.441 14.1445C105.246 14.0534 105.103 13.9948 105.012 13.9688C103.788 13.4609 102.688 13.207 101.711 13.207C99.875 13.207 98.2604 13.6302 96.8672 14.4766C96.776 14.5286 96.6458 14.6068 96.4766 14.7109C96.3203 14.8151 96.1901 14.8997 96.0859 14.9648C95.9948 15.0169 95.9167 15.043 95.8516 15.043C95.6693 15.043 95.5781 14.9323 95.5781 14.7109C95.5781 14.4245 95.7799 14.0273 96.1836 13.5195C97.9023 11.4362 100.318 10.3945 103.43 10.3945C104.25 10.3945 105.09 10.4922 105.949 10.6875C106.809 10.8828 107.473 11.1628 107.941 11.5273ZM99.0938 27.7969C99.5234 28.0573 99.8164 28.2331 99.9727 28.3242C100.142 28.4154 100.422 28.5195 100.812 28.6367C101.216 28.7409 101.646 28.793 102.102 28.793C102.674 28.793 103.241 28.7083 103.801 28.5391C104.361 28.3698 104.654 28.2852 104.68 28.2852C104.979 28.2852 105.129 28.4414 105.129 28.7539C105.129 28.9622 105.025 29.2227 104.816 29.5352C104.608 29.8346 104.315 30.1471 103.938 30.4727C103.56 30.7852 103.039 31.0521 102.375 31.2734C101.724 31.4948 101.008 31.6055 100.227 31.6055C99.1328 31.6055 98.0846 31.3516 97.082 30.8438C96.0794 30.3359 95.5781 29.8151 95.5781 29.2812C95.5781 28.8776 95.8451 28.4674 96.3789 28.0508C96.9258 27.6211 97.4466 27.4062 97.9414 27.4062C98.2669 27.4062 98.651 27.5365 99.0938 27.7969Z" fill="#FF3D71"/>
<path d="M131.926 5.27734C131.926 4.80859 131.965 4.48958 132.043 4.32031C132.134 4.13802 132.31 4.01432 132.57 3.94922L139.289 2.32812C139.458 2.27604 139.634 2.25 139.816 2.25C139.999 2.25 140.122 2.30859 140.188 2.42578C140.253 2.52995 140.285 2.7513 140.285 3.08984L140.051 6.15625C139.986 7.05469 139.914 7.94661 139.836 8.83203C139.758 9.71745 139.641 10.4922 139.484 11.1562L139.133 13.9297C139.029 14.75 138.931 15.6419 138.84 16.6055C138.749 17.556 138.651 18.6237 138.547 19.8086L137.629 29.4375C137.616 29.5547 137.59 29.6719 137.551 29.7891C137.512 29.9062 137.427 29.9909 137.297 30.043C137.206 30.082 136.991 30.1667 136.652 30.2969C136.327 30.4271 135.936 30.5768 135.48 30.7461C135.025 30.9154 134.536 31.0911 134.016 31.2734C133.495 31.4688 133 31.6445 132.531 31.8008C132.062 31.957 131.646 32.0872 131.281 32.1914C130.917 32.2956 130.669 32.3477 130.539 32.3477C130.357 32.3477 130.194 32.2956 130.051 32.1914C129.921 32.1003 129.855 31.918 129.855 31.6445C129.855 30.069 129.947 28.4609 130.129 26.8203C130.311 25.1667 130.474 23.526 130.617 21.8984C130.643 21.7161 130.65 21.5469 130.637 21.3906C130.637 21.2344 130.65 21.0651 130.676 20.8828H123.527L122.727 29.4375C122.714 29.5547 122.688 29.6719 122.648 29.7891C122.622 29.8932 122.538 29.9779 122.395 30.043C122.342 30.069 122.082 30.1667 121.613 30.3359C121.158 30.4922 120.624 30.681 120.012 30.9023C119.413 31.1107 118.814 31.319 118.215 31.5273C117.629 31.7487 117.18 31.918 116.867 32.0352C116.711 32.1003 116.516 32.1654 116.281 32.2305C116.06 32.3086 115.839 32.3477 115.617 32.3477C115.435 32.3477 115.272 32.2956 115.129 32.1914C114.999 32.0872 114.934 31.8984 114.934 31.625C114.934 31 114.953 30.2904 114.992 29.4961C115.044 28.6888 115.103 27.849 115.168 26.9766C115.233 26.0911 115.311 25.1862 115.402 24.2617C115.493 23.3372 115.585 22.4258 115.676 21.5273L115.715 20.9609C114.66 20.9609 113.892 20.9349 113.41 20.8828C112.941 20.8177 112.707 20.6615 112.707 20.4141C112.707 20.2448 112.805 20.0234 113 19.75C113.26 19.3854 113.56 18.9492 113.898 18.4414C114.25 17.9206 114.582 17.4128 114.895 16.918C115.22 16.4102 115.507 15.9609 115.754 15.5703C116.014 15.1667 116.184 14.9062 116.262 14.7891L116.711 10.082C116.711 10.056 116.724 9.86068 116.75 9.49609C116.776 9.13151 116.809 8.70182 116.848 8.20703C116.887 7.69922 116.926 7.17839 116.965 6.64453C117.017 6.11068 117.062 5.65495 117.102 5.27734C117.128 4.82161 117.16 4.5026 117.199 4.32031C117.251 4.13802 117.408 4.01432 117.668 3.94922L124.309 2.32812C124.478 2.27604 124.654 2.25 124.836 2.25C125.018 2.25 125.142 2.30859 125.207 2.42578C125.272 2.52995 125.305 2.7513 125.305 3.08984C125.214 4.02734 125.142 4.88021 125.09 5.64844C125.038 6.41667 124.979 7.13281 124.914 7.79688C124.862 8.46094 124.803 9.09245 124.738 9.69141C124.673 10.2904 124.582 10.9023 124.465 11.5273L124.074 14.5547L131.164 14.4766C131.281 12.7448 131.411 11.2734 131.555 10.0625C131.698 8.85156 131.789 7.89453 131.828 7.19141C131.867 6.52734 131.893 6.05208 131.906 5.76562C131.919 5.47917 131.926 5.31641 131.926 5.27734ZM162.824 28.5781C162.785 29.0078 162.733 29.3073 162.668 29.4766C162.603 29.6328 162.46 29.737 162.238 29.7891C161.132 30.1016 159.973 30.4206 158.762 30.7461C157.564 31.0586 156.398 31.4753 155.266 31.9961C155.227 32.0091 155.168 32.0156 155.09 32.0156C154.986 32.0156 154.921 31.9896 154.895 31.9375C154.882 31.8854 154.875 31.8268 154.875 31.7617C154.875 31.7357 154.875 31.6901 154.875 31.625C154.888 31.5599 154.908 31.4362 154.934 31.2539C154.96 31.0846 154.992 30.8438 155.031 30.5312C155.083 30.2188 155.148 29.8021 155.227 29.2812C153.768 30.2318 152.473 30.9219 151.34 31.3516C150.22 31.7943 149.224 32.0156 148.352 32.0156C146.177 32.0156 144.589 31.4948 143.586 30.4531C142.596 29.3984 142.102 27.8294 142.102 25.7461C142.102 25.3685 142.108 24.9844 142.121 24.5938C142.134 24.1901 142.173 23.7799 142.238 23.3633C142.382 21.8268 142.505 20.5117 142.609 19.418C142.714 18.3112 142.798 17.3737 142.863 16.6055C142.928 15.8372 142.98 15.2122 143.02 14.7305C143.072 14.2357 143.111 13.8255 143.137 13.5C143.176 13.1745 143.202 12.9076 143.215 12.6992C143.241 12.4779 143.267 12.263 143.293 12.0547C143.345 11.638 143.391 11.3451 143.43 11.1758C143.482 11.0065 143.632 10.8958 143.879 10.8438C144.491 10.7266 145.07 10.6224 145.617 10.5312C146.177 10.4271 146.724 10.3229 147.258 10.2188C147.805 10.1016 148.358 9.97786 148.918 9.84766C149.478 9.71745 150.07 9.5612 150.695 9.37891C150.721 9.37891 150.747 9.37891 150.773 9.37891C150.799 9.36589 150.826 9.35938 150.852 9.35938C151.008 9.35938 151.086 9.41146 151.086 9.51562V9.55469C151.034 9.9974 150.988 10.4141 150.949 10.8047C150.91 11.1953 150.871 11.599 150.832 12.0156C150.793 12.4193 150.747 12.8555 150.695 13.3242C150.656 13.793 150.604 14.3398 150.539 14.9648C150.474 15.5768 150.396 16.2865 150.305 17.0938C150.214 17.901 150.103 18.8385 149.973 19.9062C149.895 20.6875 149.816 21.4688 149.738 22.25C149.66 23.0182 149.621 23.7344 149.621 24.3984C149.621 24.763 149.647 25.1016 149.699 25.4141C149.751 25.7135 149.842 25.974 149.973 26.1953C150.116 26.4036 150.298 26.5664 150.52 26.6836C150.741 26.8008 151.027 26.8594 151.379 26.8594C151.652 26.8594 152.023 26.8008 152.492 26.6836C152.961 26.5534 153.43 26.3385 153.898 26.0391C154.367 25.7266 154.777 25.3229 155.129 24.8281C155.493 24.3203 155.702 23.6823 155.754 22.9141C155.845 21.625 155.923 20.5508 155.988 19.6914C156.066 18.819 156.132 18.0898 156.184 17.5039C156.236 16.9049 156.281 16.4036 156.32 16C156.359 15.5964 156.392 15.2122 156.418 14.8477C156.457 14.4701 156.49 14.0729 156.516 13.6562C156.542 13.2266 156.568 12.6927 156.594 12.0547C156.633 11.625 156.678 11.332 156.73 11.1758C156.796 11.0065 156.945 10.8958 157.18 10.8438C158.365 10.6094 159.576 10.375 160.812 10.1406C162.049 9.89323 163.26 9.58073 164.445 9.20312C164.549 9.20312 164.608 9.22266 164.621 9.26172C164.647 9.28776 164.66 9.33333 164.66 9.39844L162.824 28.5781ZM175.422 24.6328C175.552 24.8932 175.734 25.1602 175.969 25.4336C176.216 25.694 176.496 25.9349 176.809 26.1562C177.134 26.3776 177.486 26.5599 177.863 26.7031C178.241 26.8333 178.632 26.8984 179.035 26.8984C179.595 26.8984 180.122 26.6836 180.617 26.2539C181.112 25.8112 181.542 25.2253 181.906 24.4961C182.284 23.7539 182.577 22.9141 182.785 21.9766C182.993 21.026 183.098 20.043 183.098 19.0273C183.098 18.4023 183.039 17.8099 182.922 17.25C182.818 16.6901 182.648 16.2018 182.414 15.7852C182.18 15.3685 181.874 15.0365 181.496 14.7891C181.132 14.5417 180.689 14.418 180.168 14.418C179.322 14.418 178.547 14.6654 177.844 15.1602C177.141 15.6549 176.548 16.2865 176.066 17.0547L175.422 24.6328ZM168.156 31.957C167.974 31.9961 167.831 32.0156 167.727 32.0156C167.31 32.0156 167.102 31.7682 167.102 31.2734C167.102 31.2083 167.102 31.1432 167.102 31.0781C167.115 31.013 167.128 30.9414 167.141 30.8633L169.406 3.22656C169.406 3.1875 169.406 3.14844 169.406 3.10938C169.419 3.07031 169.426 3.03776 169.426 3.01172C169.426 2.95964 169.419 2.91406 169.406 2.875C169.406 2.83594 169.406 2.80339 169.406 2.77734C169.406 2.66016 169.445 2.56901 169.523 2.50391C169.615 2.42578 169.836 2.34115 170.188 2.25L175.676 0.941406C175.819 0.915365 176.008 0.856771 176.242 0.765625C176.477 0.674479 176.704 0.628906 176.926 0.628906C177.095 0.628906 177.251 0.667969 177.395 0.746094C177.551 0.824219 177.629 0.973958 177.629 1.19531C177.629 1.22135 177.622 1.2474 177.609 1.27344C177.609 1.29948 177.609 1.32552 177.609 1.35156C177.596 1.41667 177.564 1.70312 177.512 2.21094C177.46 2.71875 177.401 3.33724 177.336 4.06641C177.271 4.78255 177.199 5.55729 177.121 6.39062C177.043 7.21094 176.971 7.98568 176.906 8.71484C176.841 9.43099 176.783 10.043 176.73 10.5508C176.678 11.0586 176.646 11.3451 176.633 11.4102C177.583 10.7852 178.566 10.2643 179.582 9.84766C180.598 9.41797 181.613 9.20312 182.629 9.20312C183.97 9.20312 185.129 9.48307 186.105 10.043C187.082 10.5898 187.889 11.3255 188.527 12.25C189.165 13.1615 189.634 14.2161 189.934 15.4141C190.246 16.612 190.402 17.849 190.402 19.125C190.402 20.1536 190.305 21.1888 190.109 22.2305C189.927 23.2591 189.654 24.2487 189.289 25.1992C188.938 26.1497 188.488 27.0417 187.941 27.875C187.408 28.7083 186.789 29.431 186.086 30.043C185.396 30.6549 184.621 31.1367 183.762 31.4883C182.902 31.8398 181.971 32.0156 180.969 32.0156C179.758 32.0156 178.651 31.7487 177.648 31.2148C176.646 30.681 175.715 29.9909 174.855 29.1445C174.829 29.457 174.81 29.7044 174.797 29.8867C174.784 30.069 174.738 30.2122 174.66 30.3164C174.595 30.4076 174.491 30.4857 174.348 30.5508C174.204 30.6029 173.99 30.6615 173.703 30.7266C173.56 30.7656 173.306 30.8307 172.941 30.9219C172.59 31 172.16 31.0911 171.652 31.1953C171.158 31.3125 170.604 31.4362 169.992 31.5664C169.393 31.6966 168.781 31.8268 168.156 31.957Z" fill="#9685FF"/>
</svg>
