<svg width="556" height="192" viewBox="0 0 556 192" fill="none" xmlns="http://www.w3.org/2000/svg">
<path d="M10.9705 45.7407C7.2174 45.7407 3.73592 45.0494 0.526042 43.6667V35.3704H4.52604V40.8519C6.25444 41.4938 8.52604 41.8148 11.3409 41.8148C14.0569 41.8148 16.1557 41.1975 17.6372 39.963C19.168 38.679 19.9335 36.9506 19.9335 34.7778C19.9335 33.642 19.7112 32.679 19.2668 31.8889C18.8717 31.0494 18.3038 30.3333 17.5631 29.7407C16.8717 29.0988 15.9828 28.5309 14.8964 28.037C13.81 27.4938 12.5754 26.9506 11.1927 26.4074C9.85938 25.9136 8.52604 25.3951 7.19271 24.8519C5.90876 24.2593 4.72357 23.5432 3.63715 22.7037C2.60012 21.8642 1.73592 20.8025 1.04456 19.5185C0.402585 18.2346 0.0815972 16.7037 0.0815972 14.9259C0.0815972 11.716 1.26678 9.14815 3.63715 7.22222C6.00752 5.24691 9.2174 4.25926 13.2668 4.25926C16.8223 4.25926 20.0816 5 23.0446 6.48148V14.6296H19.0446V9.29629C17.2668 8.55555 15.2174 8.18518 12.8964 8.18518C10.1804 8.18518 8.13098 8.82716 6.74826 10.1111C5.36555 11.3951 4.67419 12.9259 4.67419 14.7037C4.67419 15.7901 4.87172 16.7284 5.26678 17.5185C5.71123 18.2593 6.30382 18.9259 7.04456 19.5185C7.83468 20.1111 8.77296 20.6296 9.85938 21.0741C10.9952 21.5185 12.2544 22.0123 13.6372 22.5556C15.0199 23.0988 16.3532 23.6914 17.6372 24.3333C18.9705 24.9259 20.131 25.6667 21.1186 26.5556C22.1557 27.3951 22.9705 28.4568 23.5631 29.7407C24.2051 30.9753 24.526 32.5556 24.526 34.4815C24.526 37.8889 23.2915 40.6296 20.8223 42.7037C18.4026 44.7284 15.1186 45.7407 10.9705 45.7407ZM31.9313 4.25926H28.2276V0.555553H36.3757V19.5185H36.4498C39.1165 16.7531 42.1535 15.3704 45.5609 15.3704C48.03 15.3704 49.8325 16.0864 50.9683 17.5185C52.1041 18.9012 52.672 20.8765 52.672 23.4444V41.2963H56.3757V45H45.2646V41.2963H48.2276V24.037C48.2276 22.0617 47.8819 20.7531 47.1905 20.1111C46.4992 19.4198 45.5362 19.0741 44.3017 19.0741C41.4375 19.0741 38.7955 20.4815 36.3757 23.2963V41.2963H39.3387V45H28.2276V41.2963H31.9313V4.25926ZM62.3038 18.2593C65.7112 16.3333 69.1927 15.3704 72.7483 15.3704C75.81 15.3704 78.1557 16.0864 79.7853 17.5185C81.4643 18.9012 82.3038 21.1235 82.3038 24.1852V41.2963H86.0075V45H78.3038L78.0816 41.6667L77.9334 41.5926C75.5631 44.358 72.6495 45.7407 69.1927 45.7407C66.6248 45.7407 64.5754 45 63.0446 43.5185C61.5631 41.9877 60.8223 40.0617 60.8223 37.7407C60.8223 34.6296 62.1557 32.3086 64.8223 30.7778C67.5384 29.2469 71.4643 28.4815 76.6001 28.4815H77.8594V24.1111C77.8594 22.2839 77.4149 21 76.526 20.2593C75.6865 19.4691 74.2544 19.0741 72.2297 19.0741C69.81 19.0741 67.7853 19.4691 66.1557 20.2593V24.2593H62.3038V18.2593ZM76.0816 31.6667C72.6742 31.6667 70.0569 32.1111 68.2297 33C66.4026 33.8395 65.489 35.3457 65.489 37.5185C65.489 39.0988 65.9334 40.2593 66.8223 41C67.7112 41.6914 68.847 42.037 70.2297 42.037C73.1927 42.037 75.7359 40.8272 77.8594 38.4074V31.6667H76.0816ZM88.9683 41.2963H92.672V19.8148H88.9683V16.1111H96.8942L97.1165 20.2593H97.2646C98.2029 18.679 99.2399 17.5185 100.376 16.7778C101.512 16.037 102.87 15.6667 104.45 15.6667C105.042 15.6667 105.561 15.716 106.005 15.8148V20.4815C105.265 20.3333 104.499 20.2593 103.709 20.2593C102.277 20.2593 101.018 20.6049 99.9313 21.2963C98.8942 21.9383 97.956 23 97.1165 24.4815V41.2963H101.561V45H88.9683V41.2963ZM108.949 41.2963H112.652V19.8148H108.949V16.1111H117.097V41.2963H120.801V45H108.949V41.2963ZM111.393 8.25926C111.393 7.22222 111.665 6.4321 112.208 5.88889C112.801 5.29629 113.591 5 114.578 5C115.517 5 116.282 5.29629 116.875 5.88889C117.467 6.4321 117.764 7.17284 117.764 8.11111C117.764 9.09876 117.467 9.88889 116.875 10.4815C116.282 11.0247 115.492 11.2963 114.504 11.2963C113.566 11.2963 112.801 11.0247 112.208 10.4815C111.665 9.88889 111.393 9.14815 111.393 8.25926ZM124.476 41.2963H128.18V19.8148H124.476V16.1111H132.328L132.55 19.963H132.624C135.291 16.9012 138.353 15.3704 141.809 15.3704C144.279 15.3704 146.081 16.0864 147.217 17.5185C148.353 18.9012 148.921 20.8765 148.921 23.4444V41.2963H152.624V45H141.513V41.2963H144.476V24.037C144.476 22.0617 144.13 20.7531 143.439 20.1111C142.748 19.4198 141.785 19.0741 140.55 19.0741C137.686 19.0741 135.044 20.6049 132.624 23.6667V41.2963H135.587V45H124.476V41.2963ZM156.33 25.8148C156.33 22.7531 157.293 20.2593 159.219 18.3333C161.145 16.358 163.614 15.3704 166.626 15.3704C167.713 15.3704 168.701 15.4938 169.589 15.7407C170.38 15.9877 171.268 16.1111 172.256 16.1111H179.293V19.6667H175.071V19.7407C176.009 21.3704 176.478 23.1728 176.478 25.1481C176.478 28.4074 175.515 31.0494 173.589 33.0741C171.713 35.0988 169.268 36.1111 166.256 36.1111C164.873 36.1111 163.639 35.9136 162.552 35.5185C161.614 36.6049 161.145 37.642 161.145 38.6296C161.145 39.2222 161.342 39.6914 161.738 40.037C162.133 40.3827 162.75 40.5556 163.589 40.5556H168.775C172.034 40.5556 174.528 41.2222 176.256 42.5556C178.034 43.8889 178.923 45.8642 178.923 48.4815C178.923 51.6914 177.639 54.2593 175.071 56.1852C172.503 58.1111 169.268 59.0741 165.367 59.0741C162.207 59.0741 159.663 58.3333 157.738 56.8519C155.812 55.3704 154.849 53.4691 154.849 51.1481C154.849 48.4815 156.182 46.037 158.849 43.8148C157.663 42.8272 157.071 41.5432 157.071 39.963C157.071 37.9877 158.133 36.1111 160.256 34.3333C157.639 32.3086 156.33 29.4691 156.33 25.8148ZM161.589 45C160.059 46.4815 159.293 48.2099 159.293 50.1852C159.293 51.8642 159.836 53.1728 160.923 54.1111C162.009 55.0988 163.688 55.5926 165.96 55.5926C168.626 55.5926 170.701 55.0247 172.182 53.8889C173.713 52.8025 174.478 51.3704 174.478 49.5926C174.478 48.0617 173.96 46.9012 172.923 46.1111C171.935 45.3704 170.552 45 168.775 45H161.589ZM160.923 25.4444C160.923 27.6667 161.392 29.4198 162.33 30.7037C163.268 31.9383 164.676 32.5556 166.552 32.5556C168.33 32.5556 169.663 31.9877 170.552 30.8519C171.441 29.716 171.886 27.9877 171.886 25.6667C171.886 23.3951 171.417 21.7407 170.478 20.7037C169.589 19.6173 168.207 19.0741 166.33 19.0741C164.552 19.0741 163.194 19.5926 162.256 20.6296C161.367 21.6667 160.923 23.2716 160.923 25.4444ZM203.234 45.7407C201.111 45.7407 199.432 45.1975 198.197 44.1111C196.963 42.9753 196.345 41.321 196.345 39.1481V19.8148H192.642V16.1111H196.345V9.44444L200.79 8.62963V16.1111H207.456V19.8148H200.79V38.4074C200.79 39.8395 201.061 40.8025 201.605 41.2963C202.197 41.7901 202.963 42.037 203.901 42.037C205.086 42.037 206.271 41.7407 207.456 41.1481V44.7778C206.123 45.4198 204.716 45.7407 203.234 45.7407ZM214.099 4.25926H210.396V0.555553H218.544V19.5185H218.618C221.284 16.7531 224.321 15.3704 227.729 15.3704C230.198 15.3704 232 16.0864 233.136 17.5185C234.272 18.9012 234.84 20.8765 234.84 23.4444V41.2963H238.544V45H227.433V41.2963H230.396V24.037C230.396 22.0617 230.05 20.7531 229.359 20.1111C228.667 19.4198 227.704 19.0741 226.47 19.0741C223.605 19.0741 220.963 20.4815 218.544 23.2963V41.2963H221.507V45H210.396V41.2963H214.099V4.25926ZM263.731 39.4444V43.4444C261.262 44.9753 258.373 45.7407 255.064 45.7407C251.163 45.7407 248.101 44.4321 245.879 41.8148C243.706 39.1975 242.62 35.5432 242.62 30.8519C242.62 26.0123 243.78 22.2346 246.101 19.5185C248.422 16.7531 251.336 15.3704 254.842 15.3704C257.706 15.3704 260.027 16.5062 261.805 18.7778C263.583 21.0494 264.472 24.2839 264.472 28.4815V30.7778H247.213C247.311 34.2346 247.978 36.9259 249.213 38.8519C250.496 40.7778 252.521 41.7901 255.287 41.8889C258.348 41.8889 261.163 41.0741 263.731 39.4444ZM260.027 27.2222C260.027 24.4074 259.509 22.358 258.472 21.0741C257.435 19.7407 255.978 19.0741 254.101 19.0741C252.274 19.0741 250.743 19.7654 249.509 21.1481C248.274 22.4815 247.534 24.5062 247.287 27.2222H260.027ZM287.598 16.1111L287.82 18.4815H287.968C290.191 16.4074 292.685 15.3704 295.45 15.3704C298.61 15.3704 301.154 16.679 303.08 19.2963C305.005 21.8642 305.968 25.2716 305.968 29.5185C305.968 34.358 304.783 38.284 302.413 41.2963C300.092 44.2593 297.129 45.7407 293.524 45.7407C291.647 45.7407 289.796 45.2963 287.968 44.4074L287.82 44.4815V54.6296H292.265V58.3333H279.672V54.6296H283.376V19.8148H279.672V16.1111H287.598ZM287.82 40.9259C289.302 41.6667 291.03 42.037 293.005 42.037C295.623 42.037 297.647 41.0741 299.08 39.1481C300.561 37.2222 301.302 34.2593 301.302 30.2593C301.302 26.4074 300.66 23.5926 299.376 21.8148C298.092 19.9877 296.364 19.0741 294.191 19.0741C291.82 19.0741 289.697 20.1358 287.82 22.2593V40.9259ZM313.378 18.2593C316.785 16.3333 320.267 15.3704 323.822 15.3704C326.884 15.3704 329.23 16.0864 330.86 17.5185C332.539 18.9012 333.378 21.1235 333.378 24.1852V41.2963H337.082V45H329.378L329.156 41.6667L329.008 41.5926C326.637 44.358 323.724 45.7407 320.267 45.7407C317.699 45.7407 315.65 45 314.119 43.5185C312.637 41.9877 311.897 40.0617 311.897 37.7407C311.897 34.6296 313.23 32.3086 315.897 30.7778C318.613 29.2469 322.539 28.4815 327.674 28.4815H328.934V24.1111C328.934 22.2839 328.489 21 327.6 20.2593C326.761 19.4691 325.329 19.0741 323.304 19.0741C320.884 19.0741 318.86 19.4691 317.23 20.2593V24.2593H313.378V18.2593ZM327.156 31.6667C323.748 31.6667 321.131 32.1111 319.304 33C317.477 33.8395 316.563 35.3457 316.563 37.5185C316.563 39.0988 317.008 40.2593 317.897 41C318.785 41.6914 319.921 42.037 321.304 42.037C324.267 42.037 326.81 40.8272 328.934 38.4074V31.6667H327.156ZM340.043 41.2963H343.746V19.8148H340.043V16.1111H348.191V41.2963H351.894V45H340.043V41.2963ZM342.487 8.25926C342.487 7.22222 342.759 6.4321 343.302 5.88889C343.894 5.29629 344.685 5 345.672 5C346.61 5 347.376 5.29629 347.968 5.88889C348.561 6.4321 348.857 7.17284 348.857 8.11111C348.857 9.09876 348.561 9.88889 347.968 10.4815C347.376 11.0247 346.586 11.2963 345.598 11.2963C344.66 11.2963 343.894 11.0247 343.302 10.4815C342.759 9.88889 342.487 9.14815 342.487 8.25926ZM355.57 41.2963H359.274V19.8148H355.57V16.1111H363.422L363.644 19.963H363.718C366.385 16.9012 369.446 15.3704 372.903 15.3704C375.372 15.3704 377.175 16.0864 378.311 17.5185C379.446 18.9012 380.014 20.8765 380.014 23.4444V41.2963H383.718V45H372.607V41.2963H375.57V24.037C375.57 22.0617 375.224 20.7531 374.533 20.1111C373.841 19.4198 372.879 19.0741 371.644 19.0741C368.78 19.0741 366.138 20.6049 363.718 23.6667V41.2963H366.681V45H355.57V41.2963ZM398.186 30.7037C398.186 26.0123 399.322 22.2839 401.594 19.5185C403.915 16.7531 406.828 15.3704 410.334 15.3704C413.841 15.3704 416.631 16.6543 418.705 19.2222C420.828 21.7901 421.89 25.3951 421.89 30.037C421.89 34.7778 420.779 38.5802 418.557 41.4444C416.334 44.3086 413.421 45.7407 409.816 45.7407C406.26 45.7407 403.421 44.3827 401.297 41.6667C399.223 38.9012 398.186 35.2469 398.186 30.7037ZM402.853 30.037C402.853 33.9383 403.47 36.9259 404.705 39C405.989 41.0247 407.816 42.037 410.186 42.037C412.409 42.037 414.137 41.0988 415.372 39.2222C416.606 37.2963 417.223 34.3827 417.223 30.4815C417.223 22.8765 414.804 19.0741 409.964 19.0741C407.643 19.0741 405.865 19.963 404.631 21.7407C403.446 23.4691 402.853 26.2346 402.853 30.037ZM446.11 7.96296H442.258V3.96296C441.518 3.81481 440.777 3.74074 440.036 3.74074C438.209 3.74074 436.876 4.23457 436.036 5.22222C435.246 6.20988 434.851 7.81481 434.851 10.037V16.1111H441.518V19.8148H434.851V41.2963H438.555V45H426.703V41.2963H430.406V19.8148H426.703V16.1111H430.406V10.7037C430.406 7.14815 431.246 4.50617 432.925 2.77777C434.653 1.04938 436.999 0.185183 439.962 0.185183C441.888 0.185183 443.937 0.555553 446.11 1.29629V7.96296ZM461.515 41.2963H466.701V8.7037H458.552V14.6296H454.626V5H483.219V14.6296H479.293V8.7037H471.145V41.2963H476.33V45H461.515V41.2963ZM500.036 8.7037H495.592V41.2963H507.962V36.1111H511.888V45H486.703V41.2963H491.147V8.7037H486.703V5H500.036V8.7037ZM538.33 41.2963V36.1111H542.256V45H515.589V41.2963H520.034V8.7037H515.589V5H541.515V13.8889H537.589V8.7037H524.478V22.7778H531.886V19.0741H535.589V30.9259H531.886V26.4815H524.478V41.2963H538.33ZM552.555 36.2593C554.826 38.3827 555.962 40.6049 555.962 42.9259C555.962 46.1358 554.085 49.3951 550.332 52.7037L548.036 50.5556C550.159 48.5309 551.197 46.5802 551.147 44.7037C551.147 43.2222 550.209 41.6173 548.332 39.8889L552.555 36.2593ZM46.7656 114.593C48.2471 114.889 49.7039 115.037 51.136 115.037C54.099 115.037 56.3459 114.123 57.8767 112.296C59.457 110.469 60.2471 107.556 60.2471 103.556C60.2471 100 59.6298 97.2099 58.3953 95.1852C57.2101 93.1111 55.3829 92.0741 52.9138 92.0741C50.7409 92.0741 48.6916 92.8889 46.7656 94.5185V114.593ZM46.7656 90.963L46.9138 91.037C48.9878 89.2593 51.4323 88.3704 54.2471 88.3704C57.457 88.3704 60.0249 89.7284 61.9508 92.4444C63.9261 95.1605 64.9138 98.642 64.9138 102.889C64.9138 107.827 63.6545 111.704 61.136 114.519C58.6669 117.333 55.2595 118.741 50.9138 118.741C48.099 118.741 45.2348 118.272 42.3212 117.333V77.2593H38.6175V73.5556H46.7656V90.963ZM89.3604 92.8148H85.6567V89.1111H93.8048V114.296H97.5085V118H89.7308L89.5085 114.815H89.3604C87.1875 117.432 84.4468 118.741 81.1382 118.741C78.5209 118.741 76.5209 118.049 75.1382 116.667C73.7554 115.284 73.0641 113.284 73.0641 110.667V92.8148H69.3604V89.1111H77.5085V109.926C77.5085 111.901 77.9283 113.259 78.7678 114C79.6567 114.691 80.8419 115.037 82.3234 115.037C85.1875 115.037 87.5332 113.877 89.3604 111.556V92.8148ZM101.955 98.8148C101.955 95.7531 102.918 93.2593 104.844 91.3333C106.77 89.358 109.239 88.3704 112.251 88.3704C113.338 88.3704 114.326 88.4938 115.214 88.7407C116.005 88.9877 116.893 89.1111 117.881 89.1111H124.918V92.6667H120.696V92.7407C121.634 94.3704 122.103 96.1728 122.103 98.1481C122.103 101.407 121.14 104.049 119.214 106.074C117.338 108.099 114.893 109.111 111.881 109.111C110.498 109.111 109.264 108.914 108.177 108.519C107.239 109.605 106.77 110.642 106.77 111.63C106.77 112.222 106.967 112.691 107.363 113.037C107.758 113.383 108.375 113.556 109.214 113.556H114.4C117.659 113.556 120.153 114.222 121.881 115.556C123.659 116.889 124.548 118.864 124.548 121.481C124.548 124.691 123.264 127.259 120.696 129.185C118.128 131.111 114.893 132.074 110.992 132.074C107.832 132.074 105.288 131.333 103.363 129.852C101.437 128.37 100.474 126.469 100.474 124.148C100.474 121.481 101.807 119.037 104.474 116.815C103.288 115.827 102.696 114.543 102.696 112.963C102.696 110.988 103.758 109.111 105.881 107.333C103.264 105.309 101.955 102.469 101.955 98.8148ZM107.214 118C105.684 119.481 104.918 121.21 104.918 123.185C104.918 124.864 105.461 126.173 106.548 127.111C107.634 128.099 109.313 128.593 111.585 128.593C114.251 128.593 116.326 128.025 117.807 126.889C119.338 125.802 120.103 124.37 120.103 122.593C120.103 121.062 119.585 119.901 118.548 119.111C117.56 118.37 116.177 118 114.4 118H107.214ZM106.548 98.4444C106.548 100.667 107.017 102.42 107.955 103.704C108.893 104.938 110.301 105.556 112.177 105.556C113.955 105.556 115.288 104.988 116.177 103.852C117.066 102.716 117.511 100.988 117.511 98.6667C117.511 96.3951 117.042 94.7407 116.103 93.7037C115.214 92.6173 113.832 92.0741 111.955 92.0741C110.177 92.0741 108.819 92.5926 107.881 93.6296C106.992 94.6667 106.548 96.2716 106.548 98.4444ZM137.06 118.741C133.998 118.741 131.183 118.148 128.615 116.963V110.593H132.467V114.444C133.949 114.889 135.578 115.111 137.356 115.111C139.578 115.111 141.134 114.741 142.023 114C142.961 113.21 143.43 112.123 143.43 110.741C143.43 109.457 142.887 108.444 141.8 107.704C140.714 106.914 139.01 106.099 136.689 105.259C133.43 104.074 131.208 102.815 130.023 101.481C128.838 100.099 128.245 98.4938 128.245 96.6667C128.245 94.2469 129.208 92.2716 131.134 90.7407C133.06 89.1605 135.529 88.3704 138.541 88.3704C141.307 88.3704 143.924 88.963 146.393 90.1481V96.5185H142.541V92.5926C141.405 92.1481 139.998 91.9259 138.319 91.9259C136.442 91.9259 135.035 92.321 134.097 93.1111C133.159 93.8519 132.689 94.8395 132.689 96.0741C132.689 97.3086 133.183 98.2963 134.171 99.037C135.208 99.7284 136.813 100.469 138.986 101.259C142.097 102.346 144.344 103.556 145.726 104.889C147.159 106.222 147.875 108 147.875 110.222C147.875 112.79 146.887 114.864 144.912 116.444C142.936 117.975 140.319 118.741 137.06 118.741ZM158.16 109.259C160.432 111.383 161.567 113.605 161.567 115.926C161.567 119.136 159.691 122.395 155.938 125.704L153.641 123.556C155.765 121.531 156.802 119.58 156.753 117.704C156.753 116.222 155.814 114.617 153.938 112.889L158.16 109.259ZM181.191 91.2593C184.598 89.3333 188.079 88.3704 191.635 88.3704C194.697 88.3704 197.042 89.0864 198.672 90.5185C200.351 91.9012 201.191 94.1235 201.191 97.1852V114.296H204.894V118H197.191L196.968 114.667L196.82 114.593C194.45 117.358 191.536 118.741 188.079 118.741C185.512 118.741 183.462 118 181.931 116.519C180.45 114.988 179.709 113.062 179.709 110.741C179.709 107.63 181.042 105.309 183.709 103.778C186.425 102.247 190.351 101.481 195.487 101.481H196.746V97.1111C196.746 95.2839 196.302 94 195.413 93.2593C194.573 92.4691 193.141 92.0741 191.116 92.0741C188.697 92.0741 186.672 92.4691 185.042 93.2593V97.2593H181.191V91.2593ZM194.968 104.667C191.561 104.667 188.944 105.111 187.116 106C185.289 106.84 184.376 108.346 184.376 110.519C184.376 112.099 184.82 113.259 185.709 114C186.598 114.691 187.734 115.037 189.116 115.037C192.079 115.037 194.623 113.827 196.746 111.407V104.667H194.968ZM207.855 114.296H211.559V92.8148H207.855V89.1111H215.707L215.929 92.963H216.003C218.67 89.9012 221.732 88.3704 225.188 88.3704C227.658 88.3704 229.46 89.0864 230.596 90.5185C231.732 91.9012 232.299 93.8765 232.299 96.4444V114.296H236.003V118H224.892V114.296H227.855V97.037C227.855 95.0617 227.509 93.7531 226.818 93.1111C226.127 92.4198 225.164 92.0741 223.929 92.0741C221.065 92.0741 218.423 93.6049 216.003 96.6667V114.296H218.966V118H207.855V114.296ZM253.783 77.2593V73.5556H262.672V114.296H266.376V118H258.45L258.228 115.481L258.079 115.407C256.005 117.63 253.536 118.741 250.672 118.741C247.314 118.741 244.647 117.383 242.672 114.667C240.697 111.951 239.709 108.395 239.709 104C239.709 99.358 240.894 95.6049 243.265 92.7407C245.635 89.8272 248.697 88.3704 252.45 88.3704C254.326 88.3704 256.203 88.8148 258.079 89.7037L258.228 89.6296V77.2593H253.783ZM258.228 93.1111C256.4 92.4198 254.549 92.0741 252.672 92.0741C249.857 92.0741 247.758 93.0123 246.376 94.8889C245.042 96.716 244.376 99.5802 244.376 103.481C244.376 107.235 244.968 110.099 246.154 112.074C247.388 114.049 249.265 115.037 251.783 115.037C254.252 115.037 256.4 114.049 258.228 112.074V93.1111ZM302.696 112.444V116.444C300.227 117.975 297.338 118.741 294.029 118.741C290.128 118.741 287.066 117.432 284.844 114.815C282.671 112.198 281.585 108.543 281.585 103.852C281.585 99.0123 282.745 95.2346 285.066 92.5185C287.387 89.7531 290.301 88.3704 293.807 88.3704C296.671 88.3704 298.992 89.5062 300.77 91.7778C302.548 94.0494 303.437 97.2839 303.437 101.481V103.778H286.177C286.276 107.235 286.943 109.926 288.177 111.852C289.461 113.778 291.486 114.79 294.251 114.889C297.313 114.889 300.128 114.074 302.696 112.444ZM298.992 100.222C298.992 97.4074 298.474 95.358 297.437 94.0741C296.4 92.7407 294.943 92.0741 293.066 92.0741C291.239 92.0741 289.708 92.7654 288.474 94.1481C287.239 95.4815 286.498 97.5062 286.251 100.222H298.992ZM321.8 118.37H317.578L308.986 92.8148H305.652V89.1111H316.763V92.8148H313.504L319.949 112.667H320.097L326.763 92.8148H323.43V89.1111H334.541V92.8148H330.838L321.8 118.37ZM358.243 112.444V116.444C355.774 117.975 352.885 118.741 349.576 118.741C345.675 118.741 342.613 117.432 340.391 114.815C338.218 112.198 337.132 108.543 337.132 103.852C337.132 99.0123 338.292 95.2346 340.613 92.5185C342.934 89.7531 345.848 88.3704 349.354 88.3704C352.218 88.3704 354.539 89.5062 356.317 91.7778C358.095 94.0494 358.984 97.2839 358.984 101.481V103.778H341.724C341.823 107.235 342.49 109.926 343.724 111.852C345.008 113.778 347.033 114.79 349.798 114.889C352.86 114.889 355.675 114.074 358.243 112.444ZM354.539 100.222C354.539 97.4074 354.021 95.358 352.984 94.0741C351.946 92.7407 350.49 92.0741 348.613 92.0741C346.786 92.0741 345.255 92.7654 344.021 94.1481C342.786 95.4815 342.045 97.5062 341.798 100.222H354.539ZM363.421 114.296H367.125V92.8148H363.421V89.1111H371.347L371.57 93.2593H371.718C372.656 91.679 373.693 90.5185 374.829 89.7778C375.965 89.037 377.323 88.6667 378.903 88.6667C379.496 88.6667 380.014 88.716 380.458 88.8148V93.4815C379.718 93.3333 378.952 93.2593 378.162 93.2593C376.73 93.2593 375.471 93.6049 374.384 94.2963C373.347 94.9383 372.409 96 371.57 97.4815V114.296H376.014V118H363.421V114.296ZM406.365 92.8148L396.809 119.852C396.217 121.58 395.575 123.16 394.883 124.593C394.241 126.025 393.476 127.259 392.587 128.296C391.748 129.383 390.735 130.198 389.55 130.741C388.365 131.284 386.957 131.556 385.328 131.556C384.439 131.556 383.55 131.481 382.661 131.333V127.259C383.599 127.407 384.513 127.481 385.402 127.481C386.192 127.481 386.908 127.383 387.55 127.185C388.241 127.037 388.883 126.691 389.476 126.148C390.069 125.654 390.686 124.79 391.328 123.556C391.97 122.37 392.686 120.642 393.476 118.37H393.106L384.513 92.8148H381.18V89.1111H392.291V92.8148H389.032L395.476 112.667H395.624L402.365 92.8148H398.957V89.1111H410.069V92.8148H406.365ZM422.14 118.741C420.017 118.741 418.338 118.198 417.103 117.111C415.869 115.975 415.252 114.321 415.252 112.148V92.8148H411.548V89.1111H415.252V82.4444L419.696 81.6296V89.1111H426.363V92.8148H419.696V111.407C419.696 112.84 419.968 113.802 420.511 114.296C421.103 114.79 421.869 115.037 422.807 115.037C423.992 115.037 425.178 114.741 426.363 114.148V117.778C425.029 118.42 423.622 118.741 422.14 118.741ZM433.005 77.2593H429.302V73.5556H437.45V92.5185H437.524C440.191 89.7531 443.228 88.3704 446.635 88.3704C449.104 88.3704 450.907 89.0864 452.043 90.5185C453.178 91.9012 453.746 93.8765 453.746 96.4444V114.296H457.45V118H446.339V114.296H449.302V97.037C449.302 95.0617 448.956 93.7531 448.265 93.1111C447.573 92.4198 446.61 92.0741 445.376 92.0741C442.512 92.0741 439.87 93.4815 437.45 96.2963V114.296H440.413V118H429.302V114.296H433.005V77.2593ZM461.156 114.296H464.86V92.8148H461.156V89.1111H469.304V114.296H473.008V118H461.156V114.296ZM463.6 81.2593C463.6 80.2222 463.872 79.4321 464.415 78.8889C465.008 78.2963 465.798 78 466.785 78C467.724 78 468.489 78.2963 469.082 78.8889C469.674 79.4321 469.971 80.1728 469.971 81.1111C469.971 82.0988 469.674 82.8889 469.082 83.4815C468.489 84.0247 467.699 84.2963 466.711 84.2963C465.773 84.2963 465.008 84.0247 464.415 83.4815C463.872 82.8889 463.6 82.1481 463.6 81.2593ZM476.683 114.296H480.387V92.8148H476.683V89.1111H484.535L484.757 92.963H484.831C487.498 89.9012 490.56 88.3704 494.016 88.3704C496.486 88.3704 498.288 89.0864 499.424 90.5185C500.56 91.9012 501.128 93.8765 501.128 96.4444V114.296H504.831V118H493.72V114.296H496.683V97.037C496.683 95.0617 496.337 93.7531 495.646 93.1111C494.955 92.4198 493.992 92.0741 492.757 92.0741C489.893 92.0741 487.251 93.6049 484.831 96.6667V114.296H487.794V118H476.683V114.296ZM508.537 98.8148C508.537 95.7531 509.5 93.2593 511.426 91.3333C513.352 89.358 515.821 88.3704 518.833 88.3704C519.92 88.3704 520.908 88.4938 521.796 88.7407C522.587 88.9877 523.475 89.1111 524.463 89.1111H531.5V92.6667H527.278V92.7407C528.216 94.3704 528.685 96.1728 528.685 98.1481C528.685 101.407 527.722 104.049 525.796 106.074C523.92 108.099 521.475 109.111 518.463 109.111C517.08 109.111 515.846 108.914 514.759 108.519C513.821 109.605 513.352 110.642 513.352 111.63C513.352 112.222 513.55 112.691 513.945 113.037C514.34 113.383 514.957 113.556 515.796 113.556H520.982C524.241 113.556 526.735 114.222 528.463 115.556C530.241 116.889 531.13 118.864 531.13 121.481C531.13 124.691 529.846 127.259 527.278 129.185C524.71 131.111 521.475 132.074 517.574 132.074C514.414 132.074 511.871 131.333 509.945 129.852C508.019 128.37 507.056 126.469 507.056 124.148C507.056 121.481 508.389 119.037 511.056 116.815C509.871 115.827 509.278 114.543 509.278 112.963C509.278 110.988 510.34 109.111 512.463 107.333C509.846 105.309 508.537 102.469 508.537 98.8148ZM513.796 118C512.266 119.481 511.5 121.21 511.5 123.185C511.5 124.864 512.043 126.173 513.13 127.111C514.216 128.099 515.895 128.593 518.167 128.593C520.833 128.593 522.908 128.025 524.389 126.889C525.92 125.802 526.685 124.37 526.685 122.593C526.685 121.062 526.167 119.901 525.13 119.111C524.142 118.37 522.759 118 520.982 118H513.796ZM513.13 98.4444C513.13 100.667 513.599 102.42 514.537 103.704C515.475 104.938 516.883 105.556 518.759 105.556C520.537 105.556 521.871 104.988 522.759 103.852C523.648 102.716 524.093 100.988 524.093 98.6667C524.093 96.3951 523.624 94.7407 522.685 93.7037C521.796 92.6173 520.414 92.0741 518.537 92.0741C516.759 92.0741 515.401 92.5926 514.463 93.6296C513.574 94.6667 513.13 96.2716 513.13 98.4444ZM161.185 187.296H164.889V165.815H161.185V162.111H169.333V187.296H173.037V191H161.185V187.296ZM163.63 154.259C163.63 153.222 163.901 152.432 164.444 151.889C165.037 151.296 165.827 151 166.815 151C167.753 151 168.518 151.296 169.111 151.889C169.704 152.432 170 153.173 170 154.111C170 155.099 169.704 155.889 169.111 156.481C168.518 157.025 167.728 157.296 166.741 157.296C165.802 157.296 165.037 157.025 164.444 156.481C163.901 155.889 163.63 155.148 163.63 154.259ZM176.712 187.296H180.416V165.815H176.712V162.111H184.564L184.787 165.963H184.861C187.527 162.901 190.589 161.37 194.046 161.37C196.515 161.37 198.317 162.086 199.453 163.519C200.589 164.901 201.157 166.877 201.157 169.444V187.296H204.861V191H193.749V187.296H196.712V170.037C196.712 168.062 196.367 166.753 195.675 166.111C194.984 165.42 194.021 165.074 192.787 165.074C189.922 165.074 187.28 166.605 184.861 169.667V187.296H187.824V191H176.712V187.296ZM226.736 187.593C228.218 187.889 229.675 188.037 231.107 188.037C234.07 188.037 236.317 187.123 237.847 185.296C239.428 183.469 240.218 180.556 240.218 176.556C240.218 173 239.601 170.21 238.366 168.185C237.181 166.111 235.354 165.074 232.884 165.074C230.712 165.074 228.662 165.889 226.736 167.519V187.593ZM226.736 163.963L226.884 164.037C228.959 162.259 231.403 161.37 234.218 161.37C237.428 161.37 239.996 162.728 241.922 165.444C243.897 168.16 244.884 171.642 244.884 175.889C244.884 180.827 243.625 184.704 241.107 187.519C238.638 190.333 235.23 191.741 230.884 191.741C228.07 191.741 225.205 191.272 222.292 190.333V150.259H218.588V146.556H226.736V163.963ZM271.553 185.444V189.444C269.084 190.975 266.195 191.741 262.887 191.741C258.985 191.741 255.924 190.432 253.701 187.815C251.529 185.198 250.442 181.543 250.442 176.852C250.442 172.012 251.603 168.235 253.924 165.519C256.245 162.753 259.158 161.37 262.664 161.37C265.529 161.37 267.85 162.506 269.627 164.778C271.405 167.049 272.294 170.284 272.294 174.481V176.778H255.035C255.134 180.235 255.8 182.926 257.035 184.852C258.319 186.778 260.343 187.79 263.109 187.889C266.171 187.889 268.985 187.074 271.553 185.444ZM267.85 173.222C267.85 170.407 267.331 168.358 266.294 167.074C265.257 165.741 263.8 165.074 261.924 165.074C260.097 165.074 258.566 165.765 257.331 167.148C256.097 168.481 255.356 170.506 255.109 173.222H267.85ZM286.584 191.741C284.46 191.741 282.781 191.198 281.547 190.111C280.312 188.975 279.695 187.321 279.695 185.148V165.815H275.991V162.111H279.695V155.444L284.139 154.63V162.111H290.806V165.815H284.139V184.407C284.139 185.84 284.411 186.802 284.954 187.296C285.547 187.79 286.312 188.037 287.251 188.037C288.436 188.037 289.621 187.741 290.806 187.148V190.778C289.473 191.42 288.065 191.741 286.584 191.741ZM324.338 191.37H320.116L314.264 174.259H314.116L308.041 191.37H303.819L295.597 165.815H292.264V162.111H303.375V165.815H300.116L306.19 185.667H306.338L312.412 169.074L311.301 165.815H307.819V162.111H319.671V165.815H315.671L322.486 185.667H322.634L328.93 165.815H325.597V162.111H336.708V165.815H333.004L324.338 191.37ZM360.44 185.444V189.444C357.971 190.975 355.082 191.741 351.773 191.741C347.872 191.741 344.81 190.432 342.588 187.815C340.415 185.198 339.329 181.543 339.329 176.852C339.329 172.012 340.489 168.235 342.81 165.519C345.131 162.753 348.045 161.37 351.551 161.37C354.415 161.37 356.736 162.506 358.514 164.778C360.292 167.049 361.181 170.284 361.181 174.481V176.778H343.922C344.02 180.235 344.687 182.926 345.922 184.852C347.205 186.778 349.23 187.79 351.996 187.889C355.057 187.889 357.872 187.074 360.44 185.444ZM356.736 173.222C356.736 170.407 356.218 168.358 355.181 167.074C354.144 165.741 352.687 165.074 350.81 165.074C348.983 165.074 347.452 165.765 346.218 167.148C344.983 168.481 344.243 170.506 343.996 173.222H356.736ZM387.1 185.444V189.444C384.631 190.975 381.742 191.741 378.434 191.741C374.532 191.741 371.471 190.432 369.248 187.815C367.075 185.198 365.989 181.543 365.989 176.852C365.989 172.012 367.15 168.235 369.471 165.519C371.792 162.753 374.705 161.37 378.211 161.37C381.075 161.37 383.396 162.506 385.174 164.778C386.952 167.049 387.841 170.284 387.841 174.481V176.778H370.582C370.68 180.235 371.347 182.926 372.582 184.852C373.866 186.778 375.89 187.79 378.656 187.889C381.717 187.889 384.532 187.074 387.1 185.444ZM383.396 173.222C383.396 170.407 382.878 168.358 381.841 167.074C380.804 165.741 379.347 165.074 377.471 165.074C375.643 165.074 374.113 165.765 372.878 167.148C371.643 168.481 370.903 170.506 370.656 173.222H383.396ZM392.279 187.296H395.983V165.815H392.279V162.111H400.131L400.353 165.963H400.427C403.094 162.901 406.155 161.37 409.612 161.37C412.081 161.37 413.884 162.086 415.02 163.519C416.155 164.901 416.723 166.877 416.723 169.444V187.296H420.427V191H409.316V187.296H412.279V170.037C412.279 168.062 411.933 166.753 411.242 166.111C410.55 165.42 409.588 165.074 408.353 165.074C405.489 165.074 402.847 166.605 400.427 169.667V187.296H403.39V191H392.279V187.296Z" fill="url(#paint0_linear_12_2)"/>
<defs>
<linearGradient id="paint0_linear_12_2" x1="201.477" y1="9.5" x2="447.178" y2="139.235" gradientUnits="userSpaceOnUse">
<stop stop-color="#D7003A"/>
<stop offset="1" stop-color="#4630C9"/>
</linearGradient>
</defs>
</svg>
