<svg width="303" height="116" viewBox="0 0 303 116" fill="none" xmlns="http://www.w3.org/2000/svg">
<rect x="0.5" y="0.5" width="302" height="106" rx="49.5" fill="#141516" stroke="white"/>
<path d="M39.5938 53.5117C40.6224 53.707 41.5404 53.9479 42.3477 54.2344C43.168 54.5208 43.8581 54.8268 44.418 55.1523C44.9779 55.4648 45.4596 55.8294 45.8633 56.2461C46.2669 56.6628 46.5794 57.0664 46.8008 57.457C47.0352 57.8477 47.2174 58.2969 47.3477 58.8047C47.4779 59.3125 47.5625 59.7812 47.6016 60.2109C47.6406 60.6276 47.6602 61.1159 47.6602 61.6758C47.6602 62.7174 47.4648 63.7135 47.0742 64.6641C46.6836 65.6146 46.1953 66.4023 45.6094 67.0273C45.0365 67.6393 44.4375 68.1276 43.8125 68.4922C43.1875 68.8568 42.6211 69.0391 42.1133 69.0391C41.8398 69.0391 41.7031 68.9089 41.7031 68.6484C41.7031 68.4792 41.8073 68.2904 42.0156 68.082C42.6797 67.444 43.168 66.6693 43.4805 65.7578C43.793 64.8464 43.9492 64.0195 43.9492 63.2773C43.9492 62.8346 43.9427 62.4896 43.9297 62.2422C43.9167 61.9948 43.8711 61.6562 43.793 61.2266C43.7279 60.7969 43.6237 60.4518 43.4805 60.1914C43.3503 59.918 43.1484 59.612 42.875 59.2734C42.6016 58.9219 42.2695 58.6354 41.8789 58.4141C41.4883 58.1797 40.987 57.9648 40.375 57.7695C39.776 57.5612 39.0859 57.3984 38.3047 57.2812C37.3151 57.138 36.4232 56.9492 35.6289 56.7148C34.8477 56.4674 34.1966 56.207 33.6758 55.9336C33.168 55.6602 32.7253 55.3411 32.3477 54.9766C31.9831 54.612 31.7031 54.2734 31.5078 53.9609C31.3125 53.6354 31.1628 53.2708 31.0586 52.8672C30.9544 52.4635 30.8893 52.1315 30.8633 51.8711C30.8372 51.5977 30.8242 51.2917 30.8242 50.9531C30.8242 50.5625 30.8828 50.1914 31 49.8398C31.1823 49.2799 31.599 48.7461 32.25 48.2383C32.901 47.7305 33.4674 47.4766 33.9492 47.4766C34.1836 47.4766 34.3594 47.5286 34.4766 47.6328C34.6068 47.724 34.6719 47.9258 34.6719 48.2383C34.6719 49.2279 34.7305 50.0091 34.8477 50.582C34.9779 51.1549 35.2448 51.6367 35.6484 52.0273C36.0521 52.418 36.5404 52.7109 37.1133 52.9062C37.6862 53.1016 38.513 53.3034 39.5938 53.5117ZM36.4102 69.6055C35.4206 69.6055 34.5482 69.4753 33.793 69.2148C33.0508 68.9674 32.237 68.4401 31.3516 67.6328C30.9219 67.2422 30.707 66.832 30.707 66.4023C30.707 66.0508 30.8503 65.7318 31.1367 65.4453C31.9961 64.5859 32.7708 64.1562 33.4609 64.1562C33.9036 64.1562 34.3984 64.3841 34.9453 64.8398C35.7005 65.4909 36.3255 65.9141 36.8203 66.1094C37.3281 66.3047 37.9206 66.4023 38.5977 66.4023C39.1706 66.4023 39.6979 66.2917 40.1797 66.0703C40.6745 65.849 40.9674 65.7383 41.0586 65.7383C41.3841 65.7383 41.5469 65.9466 41.5469 66.3633C41.5469 66.5716 41.4622 66.8385 41.293 67.1641C41.1237 67.4896 40.8568 67.8477 40.4922 68.2383C40.1406 68.6159 39.6003 68.9349 38.8711 69.1953C38.1549 69.4688 37.3346 69.6055 36.4102 69.6055ZM46.1367 43.3164C46.1367 43.8242 45.7982 44.332 45.1211 44.8398C44.457 45.3477 43.8776 45.6016 43.3828 45.6016C43.0703 45.6016 42.6471 45.4844 42.1133 45.25C41.5794 45.0156 40.974 44.7812 40.2969 44.5469C39.6328 44.3125 38.9818 44.1953 38.3438 44.1953C37.25 44.1953 36.2279 44.4036 35.2773 44.8203C34.3398 45.224 33.3372 45.8685 32.2695 46.7539C31.5664 47.3398 31.1237 47.6328 30.9414 47.6328C30.6549 47.6328 30.5117 47.4766 30.5117 47.1641C30.5117 46.9557 30.6354 46.6367 30.8828 46.207C31.1302 45.7773 31.3646 45.4258 31.5859 45.1523C33.8776 42.3789 36.918 40.9922 40.707 40.9922C41.4232 40.9922 42.1914 41.0833 43.0117 41.2656C43.832 41.4349 44.5547 41.7083 45.1797 42.0859C45.8177 42.4505 46.1367 42.8607 46.1367 43.3164ZM56.8203 53.8828V60.7188C56.8203 61.8385 56.8854 62.7891 57.0156 63.5703C57.1458 64.3385 57.3346 64.9635 57.582 65.4453C57.8424 65.9271 58.1615 66.2721 58.5391 66.4805C58.9297 66.6888 59.3854 66.793 59.9062 66.793C60.5182 66.793 61.026 66.7214 61.4297 66.5781C61.8464 66.4219 62.1914 66.2591 62.4648 66.0898C62.7383 65.9076 62.9661 65.7448 63.1484 65.6016C63.3307 65.4453 63.513 65.3672 63.6953 65.3672C63.8646 65.3672 63.9883 65.4193 64.0664 65.5234C64.1445 65.6146 64.1836 65.7383 64.1836 65.8945C64.1836 66.1159 64.0924 66.4349 63.9102 66.8516C63.7409 67.2552 63.4479 67.6654 63.0312 68.082C62.6146 68.4857 62.0612 68.8372 61.3711 69.1367C60.694 69.4492 59.8411 69.6055 58.8125 69.6055C57.8099 69.6055 56.957 69.4622 56.2539 69.1758C55.5638 68.8893 54.9974 68.4271 54.5547 67.7891C54.112 67.138 53.793 66.2982 53.5977 65.2695C53.4023 64.2279 53.3047 62.9518 53.3047 61.4414V53.8828C53.3047 53.5964 53.3633 53.3815 53.4805 53.2383C53.6107 53.082 53.7669 52.9714 53.9492 52.9062C54.1445 52.8411 54.3398 52.8086 54.5352 52.8086C54.7435 52.8086 54.9258 52.8086 55.082 52.8086C55.3164 52.8086 55.5378 52.8216 55.7461 52.8477C55.9674 52.8607 56.1562 52.9062 56.3125 52.9844C56.4688 53.0495 56.5924 53.1536 56.6836 53.2969C56.7747 53.4401 56.8203 53.6354 56.8203 53.8828ZM52.2891 49.6445V50.7578C52.2891 51.0833 52.2174 51.3372 52.0742 51.5195C51.931 51.7018 51.6576 51.793 51.2539 51.793H50.3359C49.8802 51.793 49.6523 51.6497 49.6523 51.3633C49.6523 51.0117 49.9323 50.5299 50.4922 49.918C51.0651 49.306 51.5208 49 51.8594 49C52.1458 49 52.2891 49.2148 52.2891 49.6445ZM56.8203 45.4453V47.9648C56.8203 48.3685 56.9115 48.6419 57.0938 48.7852C57.276 48.9284 57.5299 49 57.8555 49H63.0898C63.5456 49 63.7734 49.1497 63.7734 49.4492C63.7734 49.7617 63.5521 50.1523 63.1094 50.6211C62.6797 51.0898 62.25 51.4023 61.8203 51.5586C61.4036 51.7148 60.6549 51.793 59.5742 51.793H54.3398C54.0143 51.793 53.7604 51.7214 53.5781 51.5781C53.3958 51.4349 53.3047 51.1615 53.3047 50.7578V47.0664C53.3047 46.3503 53.6237 45.7643 54.2617 45.3086C54.8997 44.8398 55.5247 44.6055 56.1367 44.6055C56.5924 44.6055 56.8203 44.8854 56.8203 45.4453ZM74.9258 48.3945C76.0195 48.3945 77.0026 48.5378 77.875 48.8242C78.7474 49.1107 79.4831 49.5729 80.082 50.2109C80.681 50.8359 81.1367 51.6497 81.4492 52.6523C81.7747 53.6419 81.9375 54.8398 81.9375 56.2461V66.832C81.9375 67.1576 81.8333 67.4635 81.625 67.75C81.4297 68.0365 81.1823 68.2904 80.8828 68.5117C80.5964 68.7201 80.2839 68.8828 79.9453 69C79.6198 69.1302 79.3333 69.1953 79.0859 69.1953C78.6302 69.1953 78.4023 68.9154 78.4023 68.3555V56.9688C78.4023 53.1276 76.8789 51.207 73.832 51.207C72.0612 51.207 70.4531 51.6953 69.0078 52.6719C68.4349 53.0495 68.0638 53.2383 67.8945 53.2383C67.6992 53.2383 67.6016 53.1341 67.6016 52.9258C67.6016 52.5612 67.8034 52.1315 68.207 51.6367C69.9779 49.4753 72.2174 48.3945 74.9258 48.3945ZM76.918 67.9062C76.3711 68.401 75.694 68.8047 74.8867 69.1172C74.0794 69.4427 73.3047 69.6055 72.5625 69.6055C70.8307 69.6055 69.5026 69.1497 68.5781 68.2383C67.6667 67.3138 67.2109 66.181 67.2109 64.8398C67.2109 63.8763 67.543 63.1406 68.207 62.6328C68.806 62.1641 69.3268 61.9297 69.7695 61.9297C69.9128 61.9297 70.0365 61.9818 70.1406 62.0859C70.2448 62.1901 70.2969 62.3464 70.2969 62.5547C70.2969 64.0391 70.5508 65.1198 71.0586 65.7969C71.5664 66.4609 72.4714 66.793 73.7734 66.793C74.1641 66.793 74.6393 66.7279 75.1992 66.5977C75.7591 66.4544 76.2344 66.2656 76.625 66.0312C76.8594 65.888 77.0352 65.8164 77.1523 65.8164C77.3346 65.8164 77.4258 66.0573 77.4258 66.5391C77.4258 67.138 77.2565 67.5938 76.918 67.9062ZM76.7617 57.3594C77.0091 57.4896 77.1784 57.6654 77.2695 57.8867C77.3607 58.0951 77.4062 58.4922 77.4062 59.0781C77.4062 59.599 77.3607 59.9766 77.2695 60.2109C77.1914 60.4323 77.0417 60.543 76.8203 60.543C76.6771 60.543 76.4753 60.4844 76.2148 60.3672C74.9909 59.8333 73.8841 59.5664 72.8945 59.5664C71.293 59.5664 69.7695 60.1458 68.3242 61.3047C67.8685 61.6693 67.5625 61.8516 67.4062 61.8516C67.1979 61.8516 67.0938 61.7344 67.0938 61.5C67.0938 61.1354 67.224 60.7383 67.4844 60.3086C68.1745 59.1497 69.0794 58.2708 70.1992 57.6719C71.332 57.0599 72.5885 56.7539 73.9688 56.7539C75.0234 56.7539 75.9544 56.9557 76.7617 57.3594ZM86.7812 68.3555V58.5117C86.7812 57.7826 86.957 57.2227 87.3086 56.832C87.6602 56.4284 88.0768 56.0638 88.5586 55.7383C89.0404 55.3997 89.418 55.2305 89.6914 55.2305C90.0951 55.2305 90.2969 55.5104 90.2969 56.0703V66.7344C90.2969 67.4505 89.9779 68.043 89.3398 68.5117C88.7018 68.9674 88.0768 69.1953 87.4648 69.1953C87.0091 69.1953 86.7812 68.9154 86.7812 68.3555ZM95.1797 48.3945C95.9219 48.3945 96.6966 48.5573 97.5039 48.8828C98.3242 49.2083 98.7344 49.6315 98.7344 50.1523C98.7344 50.569 98.4609 51.0052 97.9141 51.4609C97.3672 51.9036 96.8854 52.125 96.4688 52.125C96.1172 52.125 95.6224 51.9622 94.9844 51.6367C94.3854 51.3503 93.8385 51.207 93.3438 51.207C93.0312 51.207 92.7318 51.2591 92.4453 51.3633C92.1589 51.4544 91.8268 51.6432 91.4492 51.9297C91.0716 52.2031 90.7591 52.444 90.5117 52.6523C90.2773 52.8477 89.8672 53.2188 89.2812 53.7656C88.7083 54.2995 88.2591 54.7096 87.9336 54.9961C87.6471 55.2435 87.4062 55.3672 87.2109 55.3672C86.9245 55.3672 86.7812 55.1263 86.7812 54.6445V50.8555C86.7812 50.1523 87.1003 49.5664 87.7383 49.0977C88.3893 48.6289 89.0143 48.3945 89.6133 48.3945C90.069 48.3945 90.2969 48.6745 90.2969 49.2344V50.3281C90.2969 50.7448 90.388 50.9531 90.5703 50.9531C90.7135 50.9531 90.9414 50.7969 91.2539 50.4844C92.6471 49.0911 93.9557 48.3945 95.1797 48.3945ZM106.508 53.8828V60.7188C106.508 61.8385 106.573 62.7891 106.703 63.5703C106.833 64.3385 107.022 64.9635 107.27 65.4453C107.53 65.9271 107.849 66.2721 108.227 66.4805C108.617 66.6888 109.073 66.793 109.594 66.793C110.206 66.793 110.714 66.7214 111.117 66.5781C111.534 66.4219 111.879 66.2591 112.152 66.0898C112.426 65.9076 112.654 65.7448 112.836 65.6016C113.018 65.4453 113.201 65.3672 113.383 65.3672C113.552 65.3672 113.676 65.4193 113.754 65.5234C113.832 65.6146 113.871 65.7383 113.871 65.8945C113.871 66.1159 113.78 66.4349 113.598 66.8516C113.428 67.2552 113.135 67.6654 112.719 68.082C112.302 68.4857 111.749 68.8372 111.059 69.1367C110.382 69.4492 109.529 69.6055 108.5 69.6055C107.497 69.6055 106.645 69.4622 105.941 69.1758C105.251 68.8893 104.685 68.4271 104.242 67.7891C103.799 67.138 103.48 66.2982 103.285 65.2695C103.09 64.2279 102.992 62.9518 102.992 61.4414V53.8828C102.992 53.5964 103.051 53.3815 103.168 53.2383C103.298 53.082 103.454 52.9714 103.637 52.9062C103.832 52.8411 104.027 52.8086 104.223 52.8086C104.431 52.8086 104.613 52.8086 104.77 52.8086C105.004 52.8086 105.225 52.8216 105.434 52.8477C105.655 52.8607 105.844 52.9062 106 52.9844C106.156 53.0495 106.28 53.1536 106.371 53.2969C106.462 53.4401 106.508 53.6354 106.508 53.8828ZM101.977 49.6445V50.7578C101.977 51.0833 101.905 51.3372 101.762 51.5195C101.618 51.7018 101.345 51.793 100.941 51.793H100.023C99.5677 51.793 99.3398 51.6497 99.3398 51.3633C99.3398 51.0117 99.6198 50.5299 100.18 49.918C100.753 49.306 101.208 49 101.547 49C101.833 49 101.977 49.2148 101.977 49.6445ZM106.508 45.4453V47.9648C106.508 48.3685 106.599 48.6419 106.781 48.7852C106.964 48.9284 107.217 49 107.543 49H112.777C113.233 49 113.461 49.1497 113.461 49.4492C113.461 49.7617 113.24 50.1523 112.797 50.6211C112.367 51.0898 111.938 51.4023 111.508 51.5586C111.091 51.7148 110.342 51.793 109.262 51.793H104.027C103.702 51.793 103.448 51.7214 103.266 51.5781C103.083 51.4349 102.992 51.1615 102.992 50.7578V47.0664C102.992 46.3503 103.311 45.7643 103.949 45.3086C104.587 44.8398 105.212 44.6055 105.824 44.6055C106.28 44.6055 106.508 44.8854 106.508 45.4453ZM133.266 53.5117C134.294 53.707 135.212 53.9479 136.02 54.2344C136.84 54.5208 137.53 54.8268 138.09 55.1523C138.65 55.4648 139.132 55.8294 139.535 56.2461C139.939 56.6628 140.251 57.0664 140.473 57.457C140.707 57.8477 140.889 58.2969 141.02 58.8047C141.15 59.3125 141.234 59.7812 141.273 60.2109C141.312 60.6276 141.332 61.1159 141.332 61.6758C141.332 62.7174 141.137 63.7135 140.746 64.6641C140.355 65.6146 139.867 66.4023 139.281 67.0273C138.708 67.6393 138.109 68.1276 137.484 68.4922C136.859 68.8568 136.293 69.0391 135.785 69.0391C135.512 69.0391 135.375 68.9089 135.375 68.6484C135.375 68.4792 135.479 68.2904 135.688 68.082C136.352 67.444 136.84 66.6693 137.152 65.7578C137.465 64.8464 137.621 64.0195 137.621 63.2773C137.621 62.8346 137.615 62.4896 137.602 62.2422C137.589 61.9948 137.543 61.6562 137.465 61.2266C137.4 60.7969 137.296 60.4518 137.152 60.1914C137.022 59.918 136.82 59.612 136.547 59.2734C136.273 58.9219 135.941 58.6354 135.551 58.4141C135.16 58.1797 134.659 57.9648 134.047 57.7695C133.448 57.5612 132.758 57.3984 131.977 57.2812C130.987 57.138 130.095 56.9492 129.301 56.7148C128.52 56.4674 127.868 56.207 127.348 55.9336C126.84 55.6602 126.397 55.3411 126.02 54.9766C125.655 54.612 125.375 54.2734 125.18 53.9609C124.984 53.6354 124.835 53.2708 124.73 52.8672C124.626 52.4635 124.561 52.1315 124.535 51.8711C124.509 51.5977 124.496 51.2917 124.496 50.9531C124.496 50.5625 124.555 50.1914 124.672 49.8398C124.854 49.2799 125.271 48.7461 125.922 48.2383C126.573 47.7305 127.139 47.4766 127.621 47.4766C127.855 47.4766 128.031 47.5286 128.148 47.6328C128.279 47.724 128.344 47.9258 128.344 48.2383C128.344 49.2279 128.402 50.0091 128.52 50.582C128.65 51.1549 128.917 51.6367 129.32 52.0273C129.724 52.418 130.212 52.7109 130.785 52.9062C131.358 53.1016 132.185 53.3034 133.266 53.5117ZM130.082 69.6055C129.092 69.6055 128.22 69.4753 127.465 69.2148C126.723 68.9674 125.909 68.4401 125.023 67.6328C124.594 67.2422 124.379 66.832 124.379 66.4023C124.379 66.0508 124.522 65.7318 124.809 65.4453C125.668 64.5859 126.443 64.1562 127.133 64.1562C127.576 64.1562 128.07 64.3841 128.617 64.8398C129.372 65.4909 129.997 65.9141 130.492 66.1094C131 66.3047 131.592 66.4023 132.27 66.4023C132.842 66.4023 133.37 66.2917 133.852 66.0703C134.346 65.849 134.639 65.7383 134.73 65.7383C135.056 65.7383 135.219 65.9466 135.219 66.3633C135.219 66.5716 135.134 66.8385 134.965 67.1641C134.796 67.4896 134.529 67.8477 134.164 68.2383C133.812 68.6159 133.272 68.9349 132.543 69.1953C131.827 69.4688 131.007 69.6055 130.082 69.6055ZM139.809 43.3164C139.809 43.8242 139.47 44.332 138.793 44.8398C138.129 45.3477 137.549 45.6016 137.055 45.6016C136.742 45.6016 136.319 45.4844 135.785 45.25C135.251 45.0156 134.646 44.7812 133.969 44.5469C133.305 44.3125 132.654 44.1953 132.016 44.1953C130.922 44.1953 129.9 44.4036 128.949 44.8203C128.012 45.224 127.009 45.8685 125.941 46.7539C125.238 47.3398 124.796 47.6328 124.613 47.6328C124.327 47.6328 124.184 47.4766 124.184 47.1641C124.184 46.9557 124.307 46.6367 124.555 46.207C124.802 45.7773 125.036 45.4258 125.258 45.1523C127.549 42.3789 130.59 40.9922 134.379 40.9922C135.095 40.9922 135.863 41.0833 136.684 41.2656C137.504 41.4349 138.227 41.7083 138.852 42.0859C139.49 42.4505 139.809 42.8607 139.809 43.3164ZM151.137 69.6055C150.043 69.6055 149.099 69.4622 148.305 69.1758C147.523 68.9023 146.885 68.4466 146.391 67.8086C145.896 67.1576 145.531 66.3177 145.297 65.2891C145.062 64.2604 144.945 62.9909 144.945 61.4805V50.875C144.945 50.5234 145.036 50.1979 145.219 49.8984C145.414 49.5859 145.648 49.319 145.922 49.0977C146.208 48.8763 146.514 48.707 146.84 48.5898C147.178 48.4596 147.491 48.3945 147.777 48.3945C148.233 48.3945 148.461 48.6745 148.461 49.2344V61.1289L148.539 62.6328C148.591 63.375 148.695 64.013 148.852 64.5469C149.008 65.0677 149.242 65.4974 149.555 65.8359C149.867 66.1615 150.258 66.4023 150.727 66.5586C151.208 66.7148 151.788 66.793 152.465 66.793C153.546 66.793 154.529 66.5391 155.414 66.0312C155.661 65.888 155.824 65.8164 155.902 65.8164C156.02 65.8164 156.098 65.862 156.137 65.9531C156.189 66.0443 156.215 66.2396 156.215 66.5391C156.215 67.0859 156.026 67.5547 155.648 67.9453C155.271 68.3229 154.815 68.6354 154.281 68.8828C153.747 69.1302 153.188 69.3125 152.602 69.4297C152.029 69.5469 151.54 69.6055 151.137 69.6055ZM160.727 49.2344V66.7344C160.727 67.4375 160.401 68.0234 159.75 68.4922C159.112 68.9609 158.493 69.1953 157.895 69.1953C157.439 69.1953 157.211 68.9154 157.211 68.3555V50.8555C157.211 50.1784 157.536 49.599 158.188 49.1172C158.839 48.6354 159.457 48.3945 160.043 48.3945C160.499 48.3945 160.727 48.6745 160.727 49.2344ZM171.176 53.8438V66.7344C171.176 67.0729 171.078 67.3919 170.883 67.6914C170.701 67.9909 170.466 68.2513 170.18 68.4727C169.906 68.694 169.6 68.8698 169.262 69C168.923 69.1302 168.611 69.1953 168.324 69.1953C167.882 69.1953 167.66 68.9154 167.66 68.3555V53.8438C167.66 53.5964 167.706 53.401 167.797 53.2578C167.888 53.1146 168.012 53.0104 168.168 52.9453C168.337 52.8672 168.526 52.8216 168.734 52.8086C168.956 52.7956 169.184 52.7891 169.418 52.7891C169.665 52.7891 169.893 52.8021 170.102 52.8281C170.323 52.8411 170.512 52.8867 170.668 52.9648C170.824 53.0299 170.948 53.1341 171.039 53.2773C171.13 53.4206 171.176 53.6094 171.176 53.8438ZM178.852 40.1133C179.255 40.4258 179.457 40.7318 179.457 41.0312C179.457 41.3698 179.184 41.7799 178.637 42.2617C178.103 42.7305 177.615 42.9648 177.172 42.9648C176.924 42.9648 176.514 42.8281 175.941 42.5547C175.525 42.3594 175.219 42.2227 175.023 42.1445C174.828 42.0664 174.555 41.9883 174.203 41.9102C173.865 41.832 173.493 41.793 173.09 41.793C171.918 41.793 170.694 42.2227 169.418 43.082C168.845 43.4596 168.5 43.6484 168.383 43.6484C168.161 43.6484 168.051 43.5378 168.051 43.3164C168.051 42.9909 168.331 42.4831 168.891 41.793C169.711 40.7904 170.635 40.0742 171.664 39.6445C172.693 39.2148 173.715 39 174.73 39C176.501 39 177.875 39.3711 178.852 40.1133ZM172.738 51.8125H168.695C168.37 51.8125 168.116 51.7409 167.934 51.5977C167.751 51.4544 167.66 51.181 167.66 50.7773V50.0742C167.66 47.4049 167.953 45.7188 168.539 45.0156C168.852 44.638 169.236 44.3125 169.691 44.0391C170.16 43.7656 170.531 43.6289 170.805 43.6289C171.234 43.6289 171.449 43.8503 171.449 44.293C171.449 44.3711 171.417 44.7747 171.352 45.5039C171.299 46.2331 171.273 47.0078 171.273 47.8281C171.273 48.2057 171.339 48.4987 171.469 48.707C171.612 48.9023 171.885 49 172.289 49H176.254C176.71 49 176.938 49.1497 176.938 49.4492C176.938 49.7617 176.716 50.1589 176.273 50.6406C175.831 51.1094 175.395 51.4219 174.965 51.5781C174.561 51.7344 173.819 51.8125 172.738 51.8125ZM166.645 49.6445V50.7773C166.645 51.1029 166.573 51.3568 166.43 51.5391C166.286 51.7214 166.013 51.8125 165.609 51.8125H164.691C164.236 51.8125 164.008 51.6693 164.008 51.3828C164.008 51.0312 164.288 50.5495 164.848 49.9375C165.421 49.3125 165.876 49 166.215 49C166.501 49 166.645 49.2148 166.645 49.6445ZM184.926 53.8438V66.7344C184.926 67.0729 184.828 67.3919 184.633 67.6914C184.451 67.9909 184.216 68.2513 183.93 68.4727C183.656 68.694 183.35 68.8698 183.012 69C182.673 69.1302 182.361 69.1953 182.074 69.1953C181.632 69.1953 181.41 68.9154 181.41 68.3555V53.8438C181.41 53.5964 181.456 53.401 181.547 53.2578C181.638 53.1146 181.762 53.0104 181.918 52.9453C182.087 52.8672 182.276 52.8216 182.484 52.8086C182.706 52.7956 182.934 52.7891 183.168 52.7891C183.415 52.7891 183.643 52.8021 183.852 52.8281C184.073 52.8411 184.262 52.8867 184.418 52.9648C184.574 53.0299 184.698 53.1341 184.789 53.2773C184.88 53.4206 184.926 53.6094 184.926 53.8438ZM192.602 40.1133C193.005 40.4258 193.207 40.7318 193.207 41.0312C193.207 41.3698 192.934 41.7799 192.387 42.2617C191.853 42.7305 191.365 42.9648 190.922 42.9648C190.674 42.9648 190.264 42.8281 189.691 42.5547C189.275 42.3594 188.969 42.2227 188.773 42.1445C188.578 42.0664 188.305 41.9883 187.953 41.9102C187.615 41.832 187.243 41.793 186.84 41.793C185.668 41.793 184.444 42.2227 183.168 43.082C182.595 43.4596 182.25 43.6484 182.133 43.6484C181.911 43.6484 181.801 43.5378 181.801 43.3164C181.801 42.9909 182.081 42.4831 182.641 41.793C183.461 40.7904 184.385 40.0742 185.414 39.6445C186.443 39.2148 187.465 39 188.48 39C190.251 39 191.625 39.3711 192.602 40.1133ZM186.488 51.8125H182.445C182.12 51.8125 181.866 51.7409 181.684 51.5977C181.501 51.4544 181.41 51.181 181.41 50.7773V50.0742C181.41 47.4049 181.703 45.7188 182.289 45.0156C182.602 44.638 182.986 44.3125 183.441 44.0391C183.91 43.7656 184.281 43.6289 184.555 43.6289C184.984 43.6289 185.199 43.8503 185.199 44.293C185.199 44.3711 185.167 44.7747 185.102 45.5039C185.049 46.2331 185.023 47.0078 185.023 47.8281C185.023 48.2057 185.089 48.4987 185.219 48.707C185.362 48.9023 185.635 49 186.039 49H190.004C190.46 49 190.688 49.1497 190.688 49.4492C190.688 49.7617 190.466 50.1589 190.023 50.6406C189.581 51.1094 189.145 51.4219 188.715 51.5781C188.311 51.7344 187.569 51.8125 186.488 51.8125ZM180.395 49.6445V50.7773C180.395 51.1029 180.323 51.3568 180.18 51.5391C180.036 51.7214 179.763 51.8125 179.359 51.8125H178.441C177.986 51.8125 177.758 51.6693 177.758 51.3828C177.758 51.0312 178.038 50.5495 178.598 49.9375C179.171 49.3125 179.626 49 179.965 49C180.251 49 180.395 49.2148 180.395 49.6445ZM196.234 56.5586C196.234 56.9232 196.345 57.1576 196.566 57.2617C196.801 57.3529 197.139 57.3984 197.582 57.3984C198.715 57.3984 199.685 57.3008 200.492 57.1055C201.299 56.9102 201.918 56.6367 202.348 56.2852C202.777 55.9336 203.083 55.5625 203.266 55.1719C203.461 54.7812 203.559 54.3516 203.559 53.8828C203.559 53.0755 203.279 52.431 202.719 51.9492C202.159 51.4544 201.26 51.207 200.023 51.207C198.083 51.207 196.26 51.819 194.555 53.043C194.047 53.4206 193.728 53.6094 193.598 53.6094C193.376 53.6094 193.266 53.4857 193.266 53.2383C193.266 52.9128 193.454 52.5156 193.832 52.0469C194.535 51.1484 195.336 50.4128 196.234 49.8398C197.133 49.2669 197.953 48.8828 198.695 48.6875C199.438 48.4922 200.173 48.3945 200.902 48.3945C201.84 48.3945 202.686 48.4922 203.441 48.6875C204.197 48.8828 204.867 49.1888 205.453 49.6055C206.039 50.0091 206.495 50.569 206.82 51.2852C207.146 51.9883 207.309 52.8151 207.309 53.7656C207.309 55.7969 206.339 57.3659 204.398 58.4727C202.471 59.5664 199.835 60.1133 196.488 60.1133C195.551 60.1133 194.49 60.0612 193.305 59.957C192.719 59.918 192.426 59.6315 192.426 59.0977C192.426 57.6523 192.634 56.5716 193.051 55.8555C193.467 55.1263 194.008 54.5664 194.672 54.1758C195.323 53.7982 195.818 53.6094 196.156 53.6094C196.469 53.6094 196.625 53.8047 196.625 54.1953C196.625 54.3516 196.56 54.7357 196.43 55.3477C196.299 55.9466 196.234 56.3503 196.234 56.5586ZM192.582 62.0078C192.582 61.3307 192.895 60.9922 193.52 60.9922H195.199C195.538 60.9922 195.772 61.0573 195.902 61.1875C196.046 61.3177 196.156 61.6042 196.234 62.0469C196.742 65.2109 198.474 66.793 201.43 66.793C202.172 66.793 202.868 66.7018 203.52 66.5195C204.171 66.3372 204.672 66.1354 205.023 65.9141C205.388 65.6927 205.72 65.4909 206.02 65.3086C206.332 65.1263 206.56 65.0352 206.703 65.0352C207.003 65.0352 207.152 65.1979 207.152 65.5234C207.152 65.7969 207.003 66.1484 206.703 66.5781C206.404 67.0078 205.974 67.457 205.414 67.9258C204.867 68.3815 204.105 68.7721 203.129 69.0977C202.165 69.4362 201.117 69.6055 199.984 69.6055C197.641 69.6055 195.818 68.9023 194.516 67.4961C193.227 66.0768 192.582 64.2474 192.582 62.0078ZM211.273 68.3555V58.5117C211.273 57.7826 211.449 57.2227 211.801 56.832C212.152 56.4284 212.569 56.0638 213.051 55.7383C213.533 55.3997 213.91 55.2305 214.184 55.2305C214.587 55.2305 214.789 55.5104 214.789 56.0703V66.7344C214.789 67.4505 214.47 68.043 213.832 68.5117C213.194 68.9674 212.569 69.1953 211.957 69.1953C211.501 69.1953 211.273 68.9154 211.273 68.3555ZM219.672 48.3945C220.414 48.3945 221.189 48.5573 221.996 48.8828C222.816 49.2083 223.227 49.6315 223.227 50.1523C223.227 50.569 222.953 51.0052 222.406 51.4609C221.859 51.9036 221.378 52.125 220.961 52.125C220.609 52.125 220.115 51.9622 219.477 51.6367C218.878 51.3503 218.331 51.207 217.836 51.207C217.523 51.207 217.224 51.2591 216.938 51.3633C216.651 51.4544 216.319 51.6432 215.941 51.9297C215.564 52.2031 215.251 52.444 215.004 52.6523C214.77 52.8477 214.359 53.2188 213.773 53.7656C213.201 54.2995 212.751 54.7096 212.426 54.9961C212.139 55.2435 211.898 55.3672 211.703 55.3672C211.417 55.3672 211.273 55.1263 211.273 54.6445V50.8555C211.273 50.1523 211.592 49.5664 212.23 49.0977C212.882 48.6289 213.507 48.3945 214.105 48.3945C214.561 48.3945 214.789 48.6745 214.789 49.2344V50.3281C214.789 50.7448 214.88 50.9531 215.062 50.9531C215.206 50.9531 215.434 50.7969 215.746 50.4844C217.139 49.0911 218.448 48.3945 219.672 48.3945ZM229.164 49.2344V66.6758C229.164 67.1706 229.047 67.5742 228.812 67.8867C228.474 68.2773 228.07 68.5964 227.602 68.8438C227.146 69.0781 226.723 69.1953 226.332 69.1953C225.876 69.1953 225.648 68.9154 225.648 68.3555V50.9141C225.648 50.4193 225.766 50.0221 226 49.7227C226.339 49.332 226.736 49.013 227.191 48.7656C227.66 48.5182 228.09 48.3945 228.48 48.3945C228.936 48.3945 229.164 48.6745 229.164 49.2344ZM229.164 39.0586V41.8906C229.164 42.3854 229.047 42.7891 228.812 43.1016C228.474 43.4922 228.07 43.8112 227.602 44.0586C227.146 44.293 226.723 44.4102 226.332 44.4102C225.876 44.4102 225.648 44.1302 225.648 43.5703V40.7383C225.648 40.2305 225.766 39.8333 226 39.5469C226.339 39.1562 226.736 38.8372 227.191 38.5898C227.66 38.3424 228.09 38.2188 228.48 38.2188C228.936 38.2188 229.164 38.4987 229.164 39.0586ZM234.008 68.3555V57.8477C234.008 57.1185 234.184 56.5586 234.535 56.168C234.887 55.7643 235.303 55.4062 235.785 55.0938C236.267 54.7682 236.645 54.6055 236.918 54.6055C237.322 54.6055 237.523 54.8854 237.523 55.4453V66.6758C237.523 67.3919 237.198 67.9909 236.547 68.4727C235.909 68.9544 235.29 69.1953 234.691 69.1953C234.236 69.1953 234.008 68.9154 234.008 68.3555ZM238.598 50.0547C239.34 49.5078 240.115 49.0977 240.922 48.8242C241.729 48.5378 242.452 48.3945 243.09 48.3945C245.355 48.3945 247.016 49.0326 248.07 50.3086C249.125 51.5716 249.652 53.694 249.652 56.6758V66.6758C249.652 67.3789 249.333 67.9779 248.695 68.4727C248.057 68.9544 247.432 69.1953 246.82 69.1953C246.365 69.1953 246.137 68.9154 246.137 68.3555V60.6406C246.137 59.4167 246.124 58.4922 246.098 57.8672C246.085 57.2422 246.033 56.4935 245.941 55.6211C245.863 54.7487 245.727 54.1042 245.531 53.6875C245.336 53.2578 245.069 52.8216 244.73 52.3789C244.405 51.9362 243.975 51.6302 243.441 51.4609C242.908 51.2917 242.27 51.207 241.527 51.207C240.03 51.207 237.979 52.2031 235.375 54.1953C234.958 54.5208 234.633 54.6836 234.398 54.6836C234.138 54.6836 234.008 54.4622 234.008 54.0195V50.9141C234.008 50.2109 234.327 49.6185 234.965 49.1367C235.616 48.6419 236.241 48.3945 236.84 48.3945C237.296 48.3945 237.523 48.6745 237.523 49.2344V49.7227C237.523 50.1914 237.628 50.4258 237.836 50.4258C238.018 50.4258 238.272 50.3021 238.598 50.0547ZM254.809 54.3125C255.069 54.0911 255.427 53.8568 255.883 53.6094C256.339 53.349 256.703 53.2188 256.977 53.2188C257.315 53.2188 257.484 53.4076 257.484 53.7852C257.484 53.8893 257.458 54.1628 257.406 54.6055C257.367 55.0482 257.348 55.4648 257.348 55.8555C257.348 56.7018 257.458 57.4375 257.68 58.0625C257.914 58.6745 258.181 59.1367 258.48 59.4492C258.793 59.7617 259.184 60.0091 259.652 60.1914C260.121 60.3607 260.518 60.4648 260.844 60.5039C261.182 60.543 261.566 60.5625 261.996 60.5625C262.621 60.5625 263.148 60.4779 263.578 60.3086C264.008 60.1263 264.268 60.0352 264.359 60.0352C264.581 60.0352 264.691 60.1719 264.691 60.4453C264.691 60.9661 264.288 61.5391 263.48 62.1641C262.686 62.776 261.579 63.082 260.16 63.082C259.535 63.082 258.936 63.0234 258.363 62.9062C257.79 62.7891 257.224 62.5872 256.664 62.3008C256.104 62.0013 255.622 61.6302 255.219 61.1875C254.815 60.7448 254.49 60.1654 254.242 59.4492C253.995 58.7331 253.871 57.9193 253.871 57.0078C253.871 55.7708 254.184 54.8724 254.809 54.3125ZM267.309 53.4336C268.22 53.4336 268.806 53.5898 269.066 53.9023C269.392 54.319 269.555 54.9766 269.555 55.875C269.555 57.3333 269.145 58.694 268.324 59.957C267.999 60.4388 267.523 60.9336 266.898 61.4414C266.286 61.9492 265.837 62.2031 265.551 62.2031C265.316 62.2031 265.199 62.0859 265.199 61.8516C265.199 61.7604 265.271 61.6042 265.414 61.3828C265.557 61.1484 265.714 60.8945 265.883 60.6211C266.052 60.3346 266.208 59.9115 266.352 59.3516C266.495 58.7917 266.566 58.1797 266.566 57.5156C266.566 57.0729 266.495 56.5 266.352 55.7969C266.208 55.0938 266 54.5404 265.727 54.1367C265.648 54.0195 265.609 53.9284 265.609 53.8633C265.609 53.7852 265.629 53.7201 265.668 53.668C265.72 53.6159 265.876 53.5638 266.137 53.5117C266.41 53.4596 266.801 53.4336 267.309 53.4336ZM266.801 79.3516C267.478 78.8958 267.992 78.3099 268.344 77.5938C268.695 76.8776 268.871 76.1419 268.871 75.3867C268.871 73.5508 268.292 72.2617 267.133 71.5195C265.974 70.7773 264.223 70.3932 261.879 70.3672C260.941 70.3542 260.238 70.3411 259.77 70.3281C259.314 70.3151 258.721 70.2695 257.992 70.1914C257.263 70.1263 256.716 70.0156 256.352 69.8594C255.987 69.7161 255.596 69.5143 255.18 69.2539C254.776 69.0065 254.49 68.681 254.32 68.2773C254.164 67.8607 254.086 67.3659 254.086 66.793C254.086 65.8424 254.392 65.0417 255.004 64.3906C255.616 63.7266 256.143 63.3945 256.586 63.3945C256.82 63.3945 256.938 63.5117 256.938 63.7461C256.938 63.8372 256.859 64.0716 256.703 64.4492C256.56 64.8268 256.488 65.1719 256.488 65.4844C256.488 65.7578 256.553 65.9922 256.684 66.1875C256.827 66.3698 257.009 66.5195 257.23 66.6367C257.452 66.7409 257.771 66.819 258.188 66.8711C258.617 66.9232 259.047 66.9622 259.477 66.9883C259.919 67.0013 260.492 67.0078 261.195 67.0078C262.081 67.0078 262.862 67.0273 263.539 67.0664C264.229 67.0924 264.958 67.1641 265.727 67.2812C266.495 67.3984 267.159 67.5612 267.719 67.7695C268.292 67.9648 268.845 68.2383 269.379 68.5898C269.926 68.9414 270.368 69.3516 270.707 69.8203C271.046 70.3021 271.319 70.8945 271.527 71.5977C271.736 72.3008 271.84 73.0885 271.84 73.9609C271.84 74.8203 271.671 75.6341 271.332 76.4023C271.007 77.1836 270.59 77.8281 270.082 78.3359C269.587 78.8568 269.053 79.2734 268.48 79.5859C267.908 79.9115 267.374 80.0872 266.879 80.1133C266.618 80.1133 266.488 80.0091 266.488 79.8008C266.488 79.6706 266.592 79.5208 266.801 79.3516ZM270.199 52.1445C269.652 52.3529 268.643 52.457 267.172 52.457C265.596 52.457 264.431 52.3073 263.676 52.0078C262.322 51.474 261.124 51.207 260.082 51.207C259.522 51.207 258.799 51.3307 257.914 51.5781C257.029 51.8125 256.124 52.2357 255.199 52.8477C254.678 53.2122 254.372 53.3945 254.281 53.3945C254.073 53.3945 253.969 53.2773 253.969 53.043C253.969 52.8346 254.138 52.4896 254.477 52.0078C254.971 51.2786 255.531 50.6602 256.156 50.1523C256.781 49.6315 257.413 49.2539 258.051 49.0195C258.702 48.7852 259.288 48.6224 259.809 48.5312C260.342 48.4401 260.87 48.3945 261.391 48.3945C262.875 48.3945 264.307 48.6875 265.688 49.2734C266.456 49.599 267.139 49.7617 267.738 49.7617H271.449C271.866 49.7617 272.074 49.9049 272.074 50.1914C272.074 50.4909 271.866 50.8555 271.449 51.2852C271.033 51.7018 270.616 51.9883 270.199 52.1445ZM253.441 75.7969C253.441 74.4818 253.799 73.3359 254.516 72.3594C255.232 71.3828 255.844 70.8945 256.352 70.8945C256.599 70.8945 256.723 71.0247 256.723 71.2852C256.723 71.3242 256.658 71.6432 256.527 72.2422C256.41 72.8411 256.352 73.4661 256.352 74.1172C256.352 75.3281 256.892 76.2721 257.973 76.9492C259.066 77.6393 260.518 77.9844 262.328 77.9844C262.992 77.9844 263.663 77.9128 264.34 77.7695C265.017 77.6263 265.551 77.4831 265.941 77.3398C266.345 77.1966 266.553 77.125 266.566 77.125C266.801 77.125 266.918 77.2422 266.918 77.4766C266.918 77.737 266.768 78.043 266.469 78.3945C266.182 78.7591 265.766 79.1237 265.219 79.4883C264.685 79.8529 263.949 80.1589 263.012 80.4062C262.087 80.6667 261.072 80.7969 259.965 80.7969C259.262 80.7969 258.546 80.6992 257.816 80.5039C257.1 80.3216 256.404 80.0417 255.727 79.6641C255.049 79.2865 254.496 78.7591 254.066 78.082C253.65 77.418 253.441 76.6562 253.441 75.7969Z" fill="#88847E"/>
</svg>
